<svg width="12" height="12" viewBox="0 0 12 12" fill="none" xmlns="http://www.w3.org/2000/svg">
<g id="Frame" clip-path="url(#clip0_1_185)">
<g id="Group">
<path id="Layer 2" d="M9.26669 1.11834C8.67387 0.65501 7.98071 0.323039 7.23721 0.146369C6.49371 -0.0303 5.7184 -0.0472632 4.9672 0.0967032C4.00131 0.285725 3.11271 0.735786 2.40723 1.39328C1.70176 2.05076 1.20916 2.88797 0.988101 3.80515C0.767046 4.72234 0.826857 5.68085 1.16041 6.56651C1.49396 7.45216 2.0872 8.22763 2.86945 8.80053C3.76257 9.42449 4.52299 10.2051 5.11006 11.1007L5.51006 11.7356C5.56087 11.8163 5.63266 11.883 5.71848 11.9293C5.80429 11.9757 5.9012 12 5.99979 12C6.09837 12 6.19528 11.9757 6.28109 11.9293C6.36691 11.883 6.4387 11.8163 6.48951 11.7356L6.87294 11.1258C7.38416 10.268 8.08121 9.52418 8.91755 8.94399C9.57333 8.51331 10.1153 7.94306 10.5007 7.27824C10.8861 6.61341 11.1043 5.87219 11.1382 5.11307C11.1721 4.35395 11.0208 3.59769 10.6961 2.90396C10.3714 2.21023 9.88226 1.59801 9.26727 1.11561L9.26669 1.11834ZM5.99921 7.09162C5.54713 7.09162 5.10521 6.96366 4.72932 6.72392C4.35343 6.48418 4.06046 6.14342 3.88746 5.74475C3.71445 5.34607 3.66919 4.90738 3.75738 4.48415C3.84558 4.06092 4.06328 3.67215 4.38294 3.36702C4.70261 3.06189 5.10989 2.85409 5.55329 2.7699C5.99668 2.68572 6.45627 2.72892 6.87393 2.89406C7.2916 3.0592 7.64858 3.33885 7.89975 3.69765C8.15091 4.05644 8.28496 4.47828 8.28496 4.9098C8.28496 5.48846 8.04415 6.04341 7.61548 6.45258C7.18682 6.86175 6.60543 7.09162 5.99921 7.09162Z" fill="#F8F6F2"/>
</g>
</g>
<defs>
<clipPath id="clip0_1_185">
<rect width="12" height="12" fill="white"/>
</clipPath>
</defs>
</svg>
