<svg width="12" height="12" viewBox="0 0 12 12" fill="none" xmlns="http://www.w3.org/2000/svg">
<g id="Frame">
<g id="Group">
<path id="Vector" d="M7.00287 8.14674C6.70432 8.33656 6.35754 8.4369 6 8.4369C5.64248 8.4369 5.2957 8.33656 4.99716 8.14674L0.0798984 5.02024C0.0527532 5.00293 0.0261104 4.98491 0 4.96621L0 10.0893C0 10.6767 0.499805 11.1429 1.10468 11.1429H10.8953C11.5112 11.1429 12 10.6662 12 10.0893V4.96619C11.9738 4.98494 11.9471 5.00299 11.9199 5.02032L7.00287 8.14674Z" fill="#F8F6F2"/>
<path id="Vector_2" d="M0.469922 4.46225L5.38718 7.58878C5.57332 7.70713 5.78665 7.7663 5.99998 7.7663C6.21333 7.7663 6.42668 7.70711 6.61282 7.58878L11.5301 4.46225C11.8243 4.27527 12 3.96234 12 3.62459C12 3.04385 11.5046 2.57141 10.8957 2.57141H1.10431C0.495399 2.57143 5.81274e-07 3.04387 5.81274e-07 3.62515C-0.000181964 3.79083 0.0426335 3.95397 0.124628 4.10004C0.206623 4.2461 0.325248 4.37054 0.469922 4.46225Z" fill="#F8F6F2"/>
</g>
</g>
</svg>
