<svg width="12" height="12" viewBox="0 0 12 12" fill="none" xmlns="http://www.w3.org/2000/svg">
<g id="Frame" clip-path="url(#clip0_1_190)">
<g id="Group">
<path id="Vector" d="M10.7808 8.24817C10.7529 8.22603 8.72506 6.76435 8.16846 6.86926C7.90276 6.91627 7.75084 7.09749 7.44597 7.46027C7.39691 7.51886 7.27905 7.6592 7.18742 7.75901C6.99475 7.69617 6.80681 7.61967 6.62503 7.5301C5.68675 7.07331 4.92865 6.31521 4.47185 5.37693C4.38222 5.19517 4.30572 5.00722 4.24294 4.81453C4.34309 4.72256 4.48343 4.6047 4.54339 4.55429C4.90446 4.25112 5.08602 4.09919 5.13303 3.83281C5.22943 3.28098 3.76877 1.23919 3.75345 1.2208C3.68717 1.12613 3.60069 1.04737 3.50024 0.990223C3.39979 0.933078 3.2879 0.898975 3.17266 0.890381C2.58063 0.890381 0.890381 3.08307 0.890381 3.45232C0.890381 3.47378 0.921379 5.65523 3.6114 8.39158C6.34502 11.0785 8.52613 11.1095 8.54759 11.1095C8.91718 11.1095 11.1095 9.41928 11.1095 8.82725C11.101 8.71241 11.0671 8.60089 11.0103 8.50075C10.9534 8.4006 10.8751 8.31433 10.7808 8.24817Z" fill="white"/>
</g>
</g>
<defs>
<clipPath id="clip0_1_190">
<rect width="12" height="12" fill="white"/>
</clipPath>
</defs>
</svg>
