<svg width="198" height="25" viewBox="0 0 198 25" fill="none" xmlns="http://www.w3.org/2000/svg">
<g clip-path="url(#clip0_0_40)">
<path d="M38.9522 12.2645C38.9522 20.2305 34.6299 25 28.1896 25C21.7147 25 17.8851 19.5828 17.8851 12.6598C17.8851 5.41724 22.1124 9.53194e-06 28.5527 9.53194e-06C35.2782 -0.00840231 38.9522 5.55182 38.9522 12.2645ZM23.1151 12.5505C23.1151 17.32 25.1294 20.6595 28.4489 20.6595C31.7944 20.6595 33.7222 17.1433 33.7222 12.4495C33.7222 8.07538 31.8636 4.34052 28.4489 4.34052C25.0688 4.33211 23.1151 7.84826 23.1151 12.5505Z" fill="white"/>
<path d="M42.2464 0H47.3133V20.2592H56.2669V25H42.2464V0Z" fill="white"/>
<path d="M65.1251 0H60.1809V25H65.1251V0Z" fill="white"/>
<path d="M87.7233 23.6196C86.1932 24.199 83.2973 25 80.4099 25C76.4074 25 73.5201 23.8753 71.4973 21.728C69.5176 19.5808 68.4111 16.3855 68.4111 12.7897C68.4457 4.65235 73.7449 0 80.9286 0C83.7554 0 85.9339 0.613498 87.0058 1.15883L85.9685 5.62372C84.7669 5.0017 83.2973 4.56714 80.894 4.56714C76.7619 4.56714 73.6066 7.14042 73.6066 12.483C73.6066 17.5699 76.468 20.5095 80.531 20.5095C81.6375 20.5095 82.5452 20.3647 82.9342 20.1858V15.0307H79.5541V10.7106H87.7147V23.6196H87.7233Z" fill="white"/>
<path d="M91.5958 0.517954C93.1864 0.224446 95.5291 0 98.2003 0C101.451 0 103.733 0.552485 105.289 1.95097C106.62 3.125 107.338 4.89468 107.338 7.17369C107.338 10.3073 105.358 12.4741 103.465 13.251V13.3633C104.995 14.0625 105.834 15.6768 106.387 17.9644C107.07 20.7959 107.718 24.0418 108.142 25H103.067C102.739 24.2662 102.186 22.2807 101.572 19.2162C100.958 16.0912 100.007 15.2797 97.9583 15.2452H96.4973V25H91.5872V0.517954H91.5958ZM96.506 11.1878H98.4597C100.932 11.1878 102.393 9.78936 102.393 7.61395C102.393 5.36947 101.027 4.18681 98.7536 4.18681C97.552 4.18681 96.8691 4.2645 96.506 4.36809V11.1878Z" fill="white"/>
<path d="M116.277 18.5804L114.721 25H109.612L116.277 0H122.786L129.616 25H124.247L122.553 18.5804H116.277ZM121.835 14.3528L120.47 9.04662C120.081 7.55915 119.691 5.70633 119.363 4.22756H119.294C118.965 5.71503 118.645 7.60264 118.282 9.04662L116.986 14.3528H121.835Z" fill="white"/>
<path d="M132.537 0H145.902V4.63639H137.482V10.3514H145.349V14.953H137.482V25H132.537V0Z" fill="white"/>
<path d="M154.624 0H149.68V25H154.624V0Z" fill="white"/>
<path d="M158.912 0H163.822V11.0522H163.891C164.375 10.087 164.903 9.2 165.421 8.31304L170.366 0.00869419H176.478L169.225 10.6522L176.832 25H171.075L165.681 14.2087L163.831 16.8435V25H158.921V0H158.912Z" fill="white"/>
<path d="M184.661 18.5804L183.105 25H177.996L184.661 0H191.171L198 25H192.632L190.946 18.5804H184.661ZM190.228 14.3528L188.863 9.04662C188.474 7.56785 188.085 5.70633 187.756 4.22756H187.687C187.358 5.71503 187.039 7.60264 186.675 9.04662L185.379 14.3528H190.228Z" fill="white"/>
<path d="M15.7331 7.28226C15.7331 14.5726 7.86638 14.5726 7.86638 14.5726H3.95034V25H-0.000289917V10.4274H3.75151L-0.000289917 4.17742V0H7.86638C7.86638 0 15.7331 -7.69092e-07 15.7331 7.28226ZM11.817 7.28226C11.817 4.17742 7.86638 4.17742 7.86638 4.17742H4.69378L8.37642 10.3952C9.42243 10.25 11.817 9.70968 11.817 7.28226Z" fill="white"/>
</g>
<defs>
<clipPath id="clip0_0_40">
<rect width="198" height="25" fill="white"/>
</clipPath>
</defs>
</svg>
