<svg width="22" height="22" viewBox="0 0 22 22" fill="none" xmlns="http://www.w3.org/2000/svg">
<g clip-path="url(#clip0_1073_322)">
<path d="M1.6473 1.73759C-0.0382543 3.48805 0.306722 5.34752 0.306722 10.9965C0.306722 15.6876 -0.511927 20.3904 3.77257 21.4975C5.11047 21.8415 16.9648 21.8415 18.3009 21.4957C20.0848 21.0355 21.5362 19.5888 21.7346 17.0664C21.7623 16.7143 21.7623 5.28497 21.7337 4.92576C21.5228 2.23887 19.8685 0.690356 17.6887 0.376722C17.1891 0.304345 17.089 0.282899 14.5258 0.278432C5.434 0.282899 3.441 -0.121877 1.6473 1.73759Z" fill="url(#paint0_linear_1073_322)"/>
<path d="M11.0298 3.08333C7.78467 3.08333 4.70312 2.79471 3.52609 5.81489C3.03991 7.06228 3.11051 8.68228 3.11051 11.0019C3.11051 13.0374 3.04527 14.9505 3.52609 16.1881C4.70044 19.21 7.80701 18.9205 11.028 18.9205C14.1355 18.9205 17.3394 19.244 18.5308 16.1881C19.0179 14.9282 18.9464 13.3323 18.9464 11.0019C18.9464 7.90847 19.1171 5.9114 17.6165 4.41203C16.0972 2.893 14.0425 3.08333 11.0262 3.08333H11.0298ZM10.3202 4.51032C17.0892 4.4996 17.9508 3.74723 17.4753 14.199C17.3064 17.8956 14.4912 17.49 11.0307 17.49C4.721 17.49 4.53957 17.3095 4.53957 10.9984C4.53957 4.61397 5.04005 4.51389 10.3202 4.50853V4.51032ZM15.2571 5.82472C15.0051 5.82472 14.7635 5.9248 14.5853 6.10293C14.4071 6.28105 14.307 6.52265 14.307 6.77456C14.307 7.02648 14.4071 7.26807 14.5853 7.4462C14.7635 7.62433 15.0051 7.7244 15.2571 7.7244C15.509 7.7244 15.7507 7.62433 15.9288 7.4462C16.107 7.26807 16.2071 7.02648 16.2071 6.77456C16.2071 6.52265 16.107 6.28105 15.9288 6.10293C15.7507 5.9248 15.509 5.82472 15.2571 5.82472ZM11.0298 6.9354C10.4957 6.93546 9.96688 7.04069 9.47348 7.24508C8.98009 7.44948 8.53179 7.74903 8.15419 8.12664C7.39158 8.88927 6.96322 9.92354 6.96334 11.0019C6.96346 12.0803 7.39205 13.1145 8.15482 13.877C8.91759 14.6394 9.95206 15.0677 11.0307 15.0676C12.1093 15.0674 13.1437 14.6389 13.9063 13.8763C14.6689 13.1137 15.0972 12.0794 15.0971 11.001C15.097 9.92264 14.6684 8.88847 13.9056 8.12601C13.1428 7.36356 12.1084 6.93528 11.0298 6.9354ZM11.0298 8.36239C14.5198 8.36239 14.5242 13.6415 11.0298 13.6415C7.54069 13.6415 7.53532 8.36239 11.0298 8.36239Z" fill="white"/>
</g>
<defs>
<linearGradient id="paint0_linear_1073_322" x1="1.68843" y1="20.3538" x2="21.6199" y2="3.09993" gradientUnits="userSpaceOnUse">
<stop stop-color="#FFDD55"/>
<stop offset="0.5" stop-color="#FF543E"/>
<stop offset="1" stop-color="#C837AB"/>
</linearGradient>
<clipPath id="clip0_1073_322">
<rect width="22" height="22" fill="white"/>
</clipPath>
</defs>
</svg>
