<svg width="22" height="22" viewBox="0 0 22 22" fill="none" xmlns="http://www.w3.org/2000/svg">
<path d="M12.6715 13.6641C12.1739 14.0021 11.5959 14.1808 11 14.1808C10.4042 14.1808 9.82619 14.0021 9.32861 13.6641L1.13316 8.09613C1.08792 8.06531 1.04352 8.03322 1 7.99992L1 17.1236C1 18.1697 1.83301 18.9999 2.84114 18.9999H19.1589C20.1854 18.9999 21 18.151 21 17.1236V7.99988C20.9564 8.03327 20.9119 8.06542 20.8666 8.09629L12.6715 13.6641Z" fill="#1B1B1B"/>
<path d="M1.7832 7.2757L9.97863 12.6923C10.2889 12.8974 10.6444 12.9999 11 12.9999C11.3555 12.9999 11.7111 12.8973 12.0214 12.6923L20.2168 7.2757C20.7072 6.95177 21 6.40962 21 5.82448C21 4.81837 20.1743 3.99988 19.1595 3.99988H2.84051C1.82567 3.99992 1 4.81841 1 5.82545C0.999697 6.11248 1.07106 6.39513 1.20771 6.64818C1.34437 6.90123 1.54208 7.11681 1.7832 7.2757Z" fill="#1B1B1B"/>
</svg>
