<svg width="22" height="22" viewBox="0 0 22 22" fill="none" xmlns="http://www.w3.org/2000/svg">
<path d="M19.7649 15.1217C19.7137 15.0811 15.9961 12.4014 14.9756 12.5937C14.4885 12.6799 14.21 13.0122 13.651 13.6772C13.5611 13.7847 13.345 14.042 13.177 14.2249C12.8238 14.1097 12.4793 13.9695 12.146 13.8053C10.4258 12.9678 9.03596 11.578 8.19851 9.85778C8.03418 9.52456 7.89393 9.17999 7.77884 8.82673C7.96244 8.65811 8.21974 8.44203 8.32965 8.34961C8.99163 7.7938 9.32449 7.51527 9.41067 7.02691C9.5874 6.01521 6.90953 2.27194 6.88143 2.23821C6.75993 2.06465 6.60137 1.92026 6.41722 1.81549C6.23307 1.71072 6.02793 1.6482 5.81665 1.63245C4.73126 1.63245 1.63248 5.65238 1.63248 6.32934C1.63248 6.36868 1.68931 10.368 6.62101 15.3846C11.6327 20.3107 15.6313 20.3676 15.6707 20.3676C16.3483 20.3676 20.3676 17.2688 20.3676 16.1834C20.352 15.9728 20.2899 15.7684 20.1856 15.5848C20.0814 15.4012 19.9377 15.243 19.7649 15.1217Z" fill="#1B1B1B"/>
</svg>
