<svg width="22" height="22" viewBox="0 0 22 22" fill="none" xmlns="http://www.w3.org/2000/svg">
<g clip-path="url(#clip0_1_75)">
<path d="M0 22L1.51723 16.5C0.531051 14.7931 0 12.8966 0 10.9241C0 4.93105 4.93105 0 10.9621 0C16.9931 0 22 4.93105 22 10.9241C22 16.9172 16.9931 22 10.9621 22C9.0655 22 7.24483 21.3931 5.61378 20.4828L0 22Z" fill="#F8F6F2"/>
<path d="M5.91722 18.5104L6.25861 18.7C7.66206 19.5724 9.29311 20.1035 11 20.1035C15.9689 20.1035 20.1034 15.969 20.1034 10.9242C20.1034 5.87934 15.9689 1.89661 10.9621 1.89661C5.95517 1.89661 1.89655 5.91728 1.89655 10.9242C1.89655 12.669 2.38966 14.3759 3.3 15.8173L3.5276 16.1587L2.65521 19.3449L5.91722 18.5104Z" fill="#55CD6C"/>
<path d="M8.04139 5.84141L7.32072 5.80347C7.09311 5.80347 6.86555 5.87935 6.71382 6.03107C6.37244 6.33452 5.80349 6.90347 5.65177 7.66212C5.38626 8.80006 5.80349 10.1656 6.78971 11.5311C7.77593 12.8966 9.67248 15.0966 13.0104 16.0449C14.0724 16.3483 14.9069 16.1586 15.5897 15.7414C16.1208 15.4 16.4621 14.869 16.5759 14.3L16.6897 13.769C16.7276 13.6172 16.6518 13.4276 16.5 13.3517L14.1104 12.2517C13.9587 12.1759 13.769 12.2138 13.6552 12.3655L12.7069 13.5793C12.6311 13.6552 12.5173 13.6931 12.4035 13.6552C11.7587 13.4276 9.5966 12.5172 8.42072 10.2414C8.38277 10.1276 8.38277 10.0138 8.45866 9.93796L9.36899 8.91385C9.44488 8.80007 9.48277 8.64834 9.44488 8.53452L8.34488 6.06901C8.30689 5.95519 8.19311 5.84141 8.04139 5.84141Z" fill="white"/>
</g>
<defs>
<clipPath id="clip0_1_75">
<rect width="22" height="22" fill="white"/>
</clipPath>
</defs>
</svg>
