<svg width="162" height="160" viewBox="0 0 162 160" fill="none" xmlns="http://www.w3.org/2000/svg">
<g id="1" filter="url(#filter0_d_1599_144)">
<path id="Vector" d="M54.4318 36.6806L53.9608 36.2108L53.9614 36.2103L52.5417 34.7943L41.9706 24.2504C41.4281 23.7001 40.782 23.2626 40.07 22.9625C39.3544 22.6608 38.5861 22.5037 37.8096 22.5V22.5L37.8012 22.5C37.0589 22.4996 36.3236 22.6458 35.6379 22.9306C34.9541 23.2147 34.3329 23.631 33.8107 24.1562L26.3167 31.6305L26.3165 31.6306C24.056 33.8857 23.9272 37.6773 26.2249 39.9698L26.2251 39.97L36.7965 50.5144L38.209 51.9232L38.2091 51.9231L38.6868 52.3996L104.451 117.993L104.922 118.462L104.623 118.761L105.513 119.051L105.864 119.402L106.042 119.224L107.724 119.774L124.939 125.401L128.647 126.613L127.467 122.895L121.969 105.581L121.429 103.879L121.617 103.691L121.255 103.329L120.976 102.451L120.675 102.751L120.197 102.275L54.4318 36.6806Z" fill="#4C4394" stroke="white" stroke-width="4"/>
<g id="2">
<g id="Vector_2">
<path d="M85.0631 76.2955L73.3062 64.5383L67.5799 70.2635L79.338 82.0207L85.0631 76.2955ZM117.585 24.804C117.836 24.5493 118.135 24.3471 118.465 24.2091C118.795 24.0711 119.149 24 119.507 24C119.864 24 120.218 24.0711 120.548 24.2091C120.878 24.3471 121.177 24.5493 121.429 24.804L124.752 28.1717C125.792 29.2292 125.786 30.9267 124.74 31.9781L119.021 37.6948L111.894 30.5672L117.585 24.804ZM35.976 101.867L63.7617 74.0803L75.5189 85.8383L47.7326 113.624C47.4515 113.904 47.1635 114.178 46.8689 114.444L35.1573 102.731C35.4221 102.436 35.6955 102.147 35.976 101.867ZM31.9629 107.173L42.4275 117.638C40.9436 118.47 39.3762 119.145 37.7512 119.649L26.4453 123.156L29.9512 111.849C30.4559 110.224 31.1302 108.657 31.9629 107.173Z" fill="#6E65B6"/>
<path d="M110.394 58.886C111.604 57.6755 112.399 56.113 112.667 54.4226C112.934 52.7322 112.659 51.0006 111.881 49.476L88.878 72.4776L77.1209 60.7207L105.767 32.0749L117.525 43.8329L115.812 45.5442C119.474 50.9058 118.801 58.1122 114.212 62.704L92.6091 84.3052C91.5548 85.3598 89.8457 85.3598 88.7925 84.3052C87.7379 83.252 87.7379 81.5429 88.7925 80.4886L110.394 58.886Z" fill="#4C4394"/>
<path d="M110.76 53.4253L90.2922 73.8918L88.878 75.3059L87.4638 73.8918L75.7067 62.1349L74.2924 60.7207L75.7066 59.3064L104.353 30.6607L105.767 29.2465L107.181 30.6607L118.939 42.4187L120.353 43.8334L118.938 45.2476L118.335 45.8509C121.525 51.8097 120.496 59.2459 115.626 64.1179L115.626 64.1182L94.0235 85.7192C92.1885 87.5547 89.2122 87.5557 87.3774 85.7185M110.76 53.4253L87.3774 85.7185M110.76 53.4253C110.75 53.654 110.727 53.8827 110.691 54.1105C110.49 55.3835 109.891 56.5602 108.98 57.4719C108.98 57.472 108.98 57.4721 108.98 57.4723L87.3784 79.0742M110.76 53.4253L87.3784 79.0742M87.3774 85.7185C85.542 83.8836 85.5436 80.9088 87.3782 79.0744M87.3774 85.7185C87.378 85.7191 87.3786 85.7197 87.3792 85.7203L87.3782 79.0744M87.3782 79.0744L87.3784 79.0742M87.3782 79.0744L87.3784 79.0742M86.4773 77.7097L87.8915 76.2955L86.4773 74.8813L74.7204 63.1241L73.3063 61.71L71.8921 63.124L66.1659 68.8491L64.7513 70.2634L66.1658 71.6777L77.9238 83.4349L79.338 84.849L80.7522 83.4349L86.4773 77.7097ZM126.179 26.7696L126.176 26.7668L122.853 23.3997C122.852 23.3995 122.852 23.3993 122.852 23.3991C122.415 22.956 121.894 22.6042 121.32 22.364C120.746 22.1237 120.129 22 119.507 22C118.884 22 118.267 22.1237 117.693 22.364C117.119 22.6041 116.598 22.9559 116.161 23.3988C116.161 23.3991 116.161 23.3994 116.16 23.3997L110.471 29.162L109.074 30.5761L110.479 31.9814L117.607 39.109L119.021 40.5231L120.435 39.1093L126.154 33.3925L126.158 33.3886C127.975 31.5618 127.988 28.61 126.179 26.7696ZM34.5618 100.452L34.5614 100.453C34.2561 100.758 33.9576 101.073 33.6677 101.397L32.4045 102.807L33.743 104.145L45.4546 115.858L46.7995 117.203L48.2103 115.928C48.529 115.639 48.8407 115.343 49.1449 115.04L49.1468 115.038L76.9331 87.2526L78.3473 85.8384L76.9332 84.4242L65.176 72.6662L63.7618 71.2518L62.3475 72.6661L34.5618 100.452ZM33.3771 105.759L31.5106 103.892L30.2188 106.194C29.3174 107.801 28.5875 109.497 28.0412 111.256L28.041 111.257L24.535 122.564L23.4102 126.192L27.0378 125.066L38.3437 121.56L38.3444 121.559C40.1034 121.013 41.8 120.283 43.4062 119.382L45.7082 118.09L43.8417 116.224L33.3771 105.759Z" stroke="white" stroke-width="4"/>
</g>
<path id="Vector_3" d="M85.0623 76.2955L73.3054 64.5383L67.5792 70.2635L79.3372 82.0207L85.0623 76.2955ZM117.584 24.804C117.835 24.5494 118.134 24.3471 118.464 24.2091C118.794 24.0711 119.148 24 119.506 24C119.863 24 120.218 24.0711 120.548 24.2091C120.877 24.3471 121.177 24.5494 121.428 24.804L124.752 28.1717C125.791 29.2293 125.785 30.9267 124.739 31.9781L119.02 37.6948L111.893 30.5672L117.584 24.804ZM35.9752 101.867L63.761 74.0804L75.5182 85.8383L47.7319 113.624C47.4507 113.904 47.1627 114.178 46.8681 114.444L35.1565 102.731C35.4213 102.436 35.6941 102.147 35.9747 101.867L35.9752 101.867ZM31.9621 107.173L42.4267 117.638C40.9428 118.47 39.3754 119.145 37.7504 119.649L26.4445 123.156L29.9504 111.849C30.4551 110.224 31.1294 108.657 31.9621 107.173Z" fill="#6E65B6"/>
<path id="Vector_4" d="M110.393 58.8861C111.603 57.6755 112.399 56.113 112.666 54.4226C112.933 52.7322 112.658 51.0006 111.88 49.476L88.8773 72.4776L77.1201 60.7207L105.766 32.075L117.524 43.8329L115.811 45.5442C119.473 50.9058 118.8 58.1122 114.211 62.704L92.6083 84.3052C91.554 85.3598 89.8449 85.3598 88.7917 84.3052C87.7371 83.252 87.7371 81.5429 88.7917 80.4886L110.393 58.8861Z" fill="#4C4394"/>
</g>
<g id="Vector_5">
<path d="M56.7281 93.0802C58.2221 94.5741 58.3164 96.2688 57.1241 97.4611C55.9254 98.6598 54.2004 98.3528 52.9021 97.0545C51.5438 95.6962 51.3104 93.8976 52.5027 92.7053C53.7462 91.4586 55.4692 91.8213 56.7281 93.0802ZM53.8498 96.0657C54.7443 96.9602 55.7435 97.2136 56.3581 96.5991C56.9774 95.9797 56.6749 94.9634 55.7946 94.0831C54.9742 93.2628 53.9297 92.9064 53.2975 93.5386C52.6702 94.1627 52.9679 95.1839 53.8498 96.0657Z" fill="white"/>
<path d="M55.0378 90.1702L55.9759 89.2321L59.7754 93.0316L61.4329 91.3741L62.322 92.2632L59.7264 94.8588L55.0378 90.1702Z" fill="white"/>
<path d="M59.2732 85.9348L58.3579 86.8501L63.0465 91.5387L63.9618 90.6234L59.2732 85.9348Z" fill="white"/>
<path d="M51.4953 96.4442C52.8625 97.8115 51.4062 99.2679 51.4062 99.2679L50.6812 99.9928L52.6368 101.948L51.9054 102.68L49.1724 99.9468L49.867 99.2522L48.0002 98.7747L47.2168 97.9912L48.6732 96.5349C48.6732 96.5349 50.1295 95.0785 51.4953 96.4442ZM50.7703 97.1692C50.188 96.5869 49.4566 97.3183 49.4566 97.3183L48.8693 97.9056L50.7171 98.39C50.8836 98.1691 51.2255 97.6245 50.7703 97.1692Z" fill="white"/>
</g>
<g id="Vector_6">
<path d="M91.4214 62.6451C91.2533 63.0306 90.8796 63.7047 90.3573 64.227C89.6332 64.951 88.8999 65.2624 88.1313 65.2257C87.3705 65.1811 86.571 64.782 85.8967 64.1076C84.3768 62.5753 84.4629 60.7441 85.7625 59.4445C86.2739 58.9332 86.783 58.6541 87.0792 58.5625L87.7289 59.5875C87.3949 59.6882 87.0475 59.8726 86.6128 60.3073C85.8653 61.0549 85.7771 62.1083 86.779 63.1102C87.733 64.0642 88.802 64.0979 89.537 63.3629C89.7372 63.1628 89.8742 62.9714 89.911 62.8675L88.9442 61.9006L88.3327 62.5121L87.5225 61.7019L88.9988 60.2256L91.4198 62.6467L91.4214 62.6451Z" fill="white"/>
<path d="M87.7893 57.612C88.022 57.2692 88.4037 56.8033 88.8869 56.3201C89.4749 55.7321 89.9914 55.4229 90.5352 55.4037C90.9962 55.383 91.4579 55.5851 91.8853 56.0125C92.473 56.6002 92.5212 57.3647 92.3244 57.8529L92.3455 57.8739C92.7534 57.7283 93.2079 57.8793 93.737 58.2083C94.3916 58.6158 95.1176 59.1072 95.3739 59.2103L94.456 60.1283C94.2589 60.0501 93.7865 59.7778 93.1007 59.3141C92.4036 58.8391 92.0794 58.8589 91.7023 59.223L91.438 59.4873L93.2674 61.3168L92.3792 62.2051L87.7877 57.6136L87.7893 57.612ZM90.6786 58.7248L91.032 58.3714C91.4793 57.9242 91.4813 57.3976 91.0733 56.9896C90.6524 56.5687 90.1835 56.594 89.7722 57.0052C89.5548 57.2226 89.4459 57.3607 89.3996 57.4458L90.6786 58.7248Z" fill="white"/>
<path d="M95.6418 56.5345L96.5642 58.02L95.64 58.9442L92.1571 53.0499L93.3347 51.8723L99.2587 55.3255L98.2876 56.2967L96.7771 55.3992L95.6418 56.5345ZM95.8545 54.7361L94.6122 53.9881C94.2629 53.7795 93.845 53.5024 93.5083 53.2845L93.4958 53.297C93.7153 53.6354 94.0114 54.0472 94.2166 54.3837L94.9771 55.6135L95.8545 54.7361Z" fill="white"/>
<path d="M95.0987 50.1083L97.5164 47.6906L98.3859 48.5601L96.8628 50.0833L97.9346 51.1551L99.3577 49.7321L100.221 50.5951L98.7976 52.0182L100.682 53.9024L99.7873 54.7969L95.0987 50.1083Z" fill="white"/>
<path d="M99.0942 46.1128L98.1998 47.0072L102.888 51.6958L103.783 50.8014L99.0942 46.1128Z" fill="white"/>
<path d="M99.87 45.3371L100.758 44.4488L102.831 46.5216L102.844 46.5091C102.75 46.2405 102.679 45.9787 102.607 45.7186L101.944 43.2666L103.049 42.161L103.733 45.4692L107.8 46.7838L106.759 47.8253L103.759 46.7773L103.919 47.6061L105.448 49.1358L104.56 50.0241L99.8715 45.3355L99.87 45.3371Z" fill="white"/>
<path d="M108.013 44.1636L108.935 45.6491L108.011 46.5733L104.528 40.679L105.706 39.5014L111.63 42.9546L110.659 43.9257L109.15 43.0267L108.013 44.1636ZM108.227 42.3637L106.985 41.6156C106.637 41.4086 106.218 41.1299 105.881 40.912L105.868 40.9245C106.088 41.2629 106.384 41.6748 106.589 42.0112L107.35 43.241L108.227 42.3637Z" fill="white"/>
</g>
</g>
<defs>
<filter id="filter0_d_1599_144" x="0.375" y="0" width="161.359" height="159.726" filterUnits="userSpaceOnUse" color-interpolation-filters="sRGB">
<feFlood flood-opacity="0" result="BackgroundImageFix"/>
<feColorMatrix in="SourceAlpha" type="matrix" values="0 0 0 0 0 0 0 0 0 0 0 0 0 0 0 0 0 0 127 0" result="hardAlpha"/>
<feMorphology radius="5" operator="erode" in="SourceAlpha" result="effect1_dropShadow_1599_144"/>
<feOffset dx="5" dy="5"/>
<feGaussianBlur stdDeviation="15"/>
<feComposite in2="hardAlpha" operator="out"/>
<feColorMatrix type="matrix" values="0 0 0 0 0.835294 0 0 0 0 0.827451 0 0 0 0 0.811765 0 0 0 0.6 0"/>
<feBlend mode="normal" in2="BackgroundImageFix" result="effect1_dropShadow_1599_144"/>
<feBlend mode="normal" in="SourceGraphic" in2="effect1_dropShadow_1599_144" result="shape"/>
</filter>
</defs>
</svg>
