<svg width="140" height="169" viewBox="0 0 140 169" fill="none" xmlns="http://www.w3.org/2000/svg">
<g id="2" filter="url(#filter0_d_1599_131)">
<g id="Group 108">
<g id="Vector">
<path fill-rule="evenodd" clip-rule="evenodd" d="M75.7973 134.081H30.5549C27.0834 134.081 24.2526 131.25 24.2526 127.779V121.873H82.1087V127.779C82.0996 131.259 79.2779 134.081 75.7973 134.081ZM34.8641 65.5319C29.3268 65.5319 29.3164 57.1111 34.8641 57.1111C40.408 57.1111 40.408 65.5319 34.8641 65.5319ZM34.8641 77.4782C29.3268 77.4782 29.3164 69.0574 34.8641 69.0574C40.408 69.0574 40.408 77.4782 34.8641 77.4782ZM34.8641 90.0372C29.3242 90.0372 29.321 81.6164 34.8641 81.6164C40.4106 81.6164 40.4041 90.0372 34.8641 90.0372ZM44.6197 113.344C43.765 113.344 43.1353 112.508 43.3753 111.685L48.3253 94.5904L42.6 94.0134C41.5918 93.9145 41.0721 92.7268 41.7076 91.9222L57.8642 71.0679C58.7254 69.9583 60.5253 70.8403 60.1454 72.2218L55.7457 87.8646H63.6351C64.737 87.8646 65.3289 89.1512 64.6264 89.9923L45.6116 112.875C45.3592 113.173 44.9898 113.344 44.6197 113.344ZM24.252 119.276V56.1192C24.252 52.6477 27.0827 49.8169 30.5542 49.8169H75.8058C79.2772 49.8169 82.108 52.6477 82.108 56.1192V119.276H24.252Z" fill="#6E65B6"/>
<path d="M27.5918 54.7741H39.6914V92.9949H27.5918V54.7741Z" fill="#6E65B6"/>
<path d="M84.108 119.873V119.276V56.1192C84.108 51.5431 80.3818 47.8169 75.8058 47.8169H30.5542C25.9782 47.8169 22.252 51.5431 22.252 56.1192V119.276V121.276H22.2526V121.873V127.779C22.2526 132.355 25.9788 136.081 30.5549 136.081H75.7973C80.3835 136.081 84.0967 132.364 84.1087 127.784V127.779V121.873V119.873H84.108ZM50.2464 95.1466L50.914 92.8411L48.5258 92.6004L44.0607 92.1505L57.2514 75.1246L53.8204 87.3231L53.1056 89.8646H55.7457H62.1321L46.2369 108.993L50.2464 95.1466Z" stroke="white" stroke-width="4"/>
</g>
<path id="Vector_2" d="M64.3374 54.4137H75.0302C76.8388 54.4137 78.3332 52.9382 78.3194 51.1062V42.1176C78.3194 40.2826 76.8288 38.8193 75.0211 38.8193H64.3374C62.5114 38.8193 61.0391 40.2917 61.0391 42.1176V51.1154C61.0391 52.9413 62.5115 54.4137 64.3374 54.4137ZM91.5206 129.183H102.781C105.518 129.183 107.747 126.953 107.747 124.217V106.266C107.747 103.53 105.518 101.3 102.781 101.3H91.5206C88.7849 101.3 86.5545 103.529 86.5545 106.266V124.217C86.5545 126.953 88.784 129.183 91.5206 129.183Z" fill="#4C4394" stroke="white" stroke-width="4"/>
<path id="Vector_3" d="M93.7395 137H100.898H100.899C103.454 137 105.531 134.924 105.531 132.368V125.885C105.531 124.068 104.05 122.587 102.233 122.587H92.0717C90.2549 122.587 88.7734 124.068 88.7734 125.885V132.034C88.7734 134.77 91.003 137 93.7395 137ZM93.0273 107.897H101.277C103.094 107.897 104.575 106.415 104.575 104.598V96.2588C104.575 94.4433 103.094 92.9604 101.277 92.9604H93.0273C91.2104 92.9604 89.729 94.442 89.729 96.2588V104.598C89.729 106.415 91.2104 107.897 93.0273 107.897Z" fill="#4C4394" stroke="white" stroke-width="4"/>
<path id="Vector_4" d="M92.7738 36.9536V96.2582C92.7738 97.5899 93.3015 98.7305 94.1939 99.5158C95.0483 100.268 96.1287 100.602 97.1436 100.604C98.1589 100.605 99.2439 100.273 100.102 99.5143C100.998 98.7221 101.519 97.5748 101.519 96.2407C101.519 95.8523 101.524 94.4808 101.531 92.3948C101.551 86.7572 101.589 75.9002 101.6 65.1236C101.608 57.7533 101.603 50.4322 101.57 44.8812C101.553 42.1069 101.53 39.7673 101.497 38.0823C101.481 37.2418 101.463 36.5517 101.441 36.0477C101.43 35.7979 101.418 35.576 101.403 35.397C101.396 35.3089 101.386 35.2111 101.373 35.116L101.373 35.1098C101.365 35.055 101.336 34.8401 101.253 34.6102L101.252 34.6098C97.9695 25.5967 89.1468 21.7227 81.2774 22.0156C73.4883 22.3055 65.5611 26.8142 65.0194 35.6071L65.0156 35.6682L65.0156 35.7294L65.0137 42.1078V42.1084C65.0137 43.441 65.5403 44.583 66.4355 45.369C67.292 46.1211 68.3735 46.452 69.3862 46.452C70.3989 46.452 71.4804 46.1211 72.3369 45.369C73.2321 44.583 73.7587 43.441 73.7587 42.1084V35.948C73.8139 34.56 74.556 33.3564 75.9601 32.4093C77.4041 31.4353 79.4626 30.8133 81.7442 30.7448C86.2359 30.61 90.8376 32.5905 92.7738 36.9536Z" fill="#4C4394" stroke="white" stroke-width="4"/>
</g>
<g id="Group 109">
<path id="Vector_5" fill-rule="evenodd" clip-rule="evenodd" d="M75.0302 52.4137H64.3374C63.616 52.4137 63.0391 51.8368 63.0391 51.1154V42.1176C63.0391 41.3963 63.616 40.8193 64.3374 40.8193H75.0211C75.7334 40.8193 76.3194 41.3963 76.3194 42.1176V51.1154C76.3279 51.8276 75.7425 52.4137 75.0302 52.4137ZM102.781 127.183H91.5206C89.8886 127.183 88.5545 125.849 88.5545 124.217V106.266C88.5545 104.634 89.8892 103.3 91.5206 103.3H102.781C104.413 103.3 105.747 104.634 105.747 106.266V124.217C105.747 125.849 104.413 127.183 102.781 127.183Z" fill="#4C4394"/>
<g id="Vector_6">
<path fill-rule="evenodd" clip-rule="evenodd" d="M75.7973 134.081H30.5549C27.0834 134.081 24.2526 131.25 24.2526 127.779V121.873H82.1087V127.779C82.0996 131.259 79.2779 134.081 75.7973 134.081ZM34.8641 65.5319C29.3268 65.5319 29.3164 57.1111 34.8641 57.1111C40.408 57.1111 40.408 65.5319 34.8641 65.5319ZM34.8641 77.4782C29.3268 77.4782 29.3164 69.0574 34.8641 69.0574C40.408 69.0574 40.408 77.4782 34.8641 77.4782ZM34.8641 90.0372C29.3242 90.0372 29.321 81.6164 34.8641 81.6164C40.4106 81.6164 40.4041 90.0372 34.8641 90.0372ZM44.6197 113.344C43.765 113.344 43.1353 112.508 43.3753 111.685L48.3253 94.5904L42.6 94.0134C41.5918 93.9145 41.0721 92.7268 41.7076 91.9222L57.8642 71.0679C58.7254 69.9583 60.5253 70.8403 60.1454 72.2218L55.7457 87.8646H63.6351C64.737 87.8646 65.3289 89.1512 64.6264 89.9923L45.6116 112.875C45.3592 113.173 44.9898 113.344 44.6197 113.344ZM24.252 119.276V56.1192C24.252 52.6477 27.0827 49.8169 30.5542 49.8169H75.8058C79.2772 49.8169 82.108 52.6477 82.108 56.1192V119.276H24.252Z" fill="#6E65B6"/>
<path d="M27.5918 54.7741H39.6914V92.9949H27.5918V54.7741Z" fill="#6E65B6"/>
<path d="M30.4824 58.4094H75.4805V114.11H30.4824V58.4094Z" fill="#6E65B6"/>
</g>
<path id="Vector_7" fill-rule="evenodd" clip-rule="evenodd" d="M100.898 135H93.7395C92.1075 135 90.7734 133.666 90.7734 132.034V125.885C90.7734 125.173 91.3595 124.587 92.0717 124.587H102.233C102.945 124.587 103.531 125.173 103.531 125.885V132.368C103.531 133.819 102.35 135 100.899 135H100.898ZM101.277 105.897H93.0273C92.315 105.897 91.729 105.311 91.729 104.598V96.2588C91.729 95.5465 92.315 94.9604 93.0273 94.9604H101.277C101.989 94.9604 102.575 95.5472 102.575 96.2588V104.598C102.575 105.311 101.989 105.897 101.277 105.897Z" fill="#4C4394"/>
<path id="Vector_8" fill-rule="evenodd" clip-rule="evenodd" d="M94.7738 36.5496C90.2701 25.313 72.0436 27.1883 71.7587 35.9122V42.1084C71.7587 45.2332 67.0137 45.2332 67.0137 42.1084L67.0156 35.7301C67.9204 21.0428 93.5549 19.3204 99.3732 35.2943C99.7849 36.4254 99.5189 93.3871 99.5189 96.2407C99.5189 99.4038 94.7738 99.3732 94.7738 96.2582V36.549V36.5496Z" fill="#4C4394"/>
</g>
<g id="Vector_9">
<path d="M44.7483 62.8414C44.7483 65.6343 43.2524 67.3065 41.0235 67.3065C38.7826 67.3065 37.4573 65.4072 37.4573 62.98C37.4573 60.4408 38.9203 58.5415 41.1492 58.5415C43.4768 58.5386 44.7483 60.488 44.7483 62.8414ZM39.2673 62.9417C39.2673 64.6139 39.9644 65.7847 41.1133 65.7847C42.2711 65.7847 42.9383 64.552 42.9383 62.9063C42.9383 61.3727 42.295 60.0633 41.1133 60.0633C39.9435 60.0603 39.2673 61.2931 39.2673 62.9417Z" fill="white"/>
<path d="M45.8884 58.5415L47.642 58.5415L47.642 65.6444L50.7408 65.6444L50.7408 67.3065L45.8884 67.3065L45.8884 58.5415Z" fill="white"/>
<path d="M53.8062 58.5415L52.095 58.5415L52.095 67.3065L53.8062 67.3065L53.8062 58.5415Z" fill="white"/>
<path d="M36.7127 61.0947C36.7127 63.6507 33.9901 63.6507 33.9901 63.6507L32.6348 63.6507L32.6348 67.3065L31.2676 67.3065L31.2676 62.1974L32.566 62.1974L31.2676 60.0061L31.2676 58.5415L33.9901 58.5415C33.9901 58.5415 36.7127 58.5415 36.7127 61.0947ZM35.3574 61.0947C35.3574 60.0061 33.9901 60.0061 33.9901 60.0061L32.8921 60.0061L34.1667 62.186C34.5287 62.1352 35.3574 61.9457 35.3574 61.0947Z" fill="white"/>
</g>
<g id="Vector_10">
<path d="M37.7986 79.6282C37.2812 79.8314 36.3018 80.1122 35.3254 80.1122C33.9718 80.1122 32.9954 79.7178 32.3113 78.965C31.6418 78.2122 31.2676 77.0919 31.2676 75.8312C31.2793 72.9783 33.0714 71.3472 35.5008 71.3472C36.4568 71.3472 37.1935 71.5623 37.556 71.7535L37.2052 73.3188C36.7988 73.1008 36.3018 72.9484 35.4891 72.9484C34.0917 72.9484 33.0246 73.8506 33.0246 75.7237C33.0246 77.5072 33.9923 78.5378 35.3663 78.5378C35.7405 78.5378 36.0475 78.487 36.179 78.4243L36.179 76.6169L35.0359 76.6169L35.0359 75.1023L37.7957 75.1023L37.7957 79.6282L37.7986 79.6282Z" fill="white"/>
<path d="M39.1081 71.5288C39.6461 71.4259 40.4383 71.3472 41.3417 71.3472C42.4409 71.3472 43.2127 71.5409 43.7389 72.0312C44.1892 72.4428 44.4318 73.0632 44.4318 73.8623C44.4318 74.9609 43.7623 75.7206 43.1221 75.993L43.1221 76.0323C43.6395 76.2775 43.9231 76.8435 44.1102 77.6455C44.3412 78.6382 44.5604 79.7762 44.7037 80.1122L42.9876 80.1122C42.8765 79.8549 42.6894 79.1588 42.4818 78.0844C42.2743 76.9887 41.9527 76.7042 41.2598 76.6921L40.7658 76.6921L40.7658 80.1122L39.1052 80.1122L39.1052 71.5288L39.1081 71.5288ZM40.7687 75.2696L41.4294 75.2696C42.2655 75.2696 42.7596 74.7793 42.7596 74.0166C42.7596 73.2297 42.2977 72.8151 41.5288 72.8151C41.1224 72.8151 40.8915 72.8423 40.7687 72.8786L40.7687 75.2696Z" fill="white"/>
<path d="M47.4551 77.8614L46.9289 80.1122L45.2011 80.1122L47.4551 71.3472L49.6565 71.3472L51.966 80.1122L50.1505 80.1122L49.5775 77.8614L47.4551 77.8614ZM49.3349 76.3793L48.873 74.5189C48.7414 73.9974 48.6099 73.3478 48.4988 72.8294L48.4754 72.8294C48.3643 73.3509 48.2561 74.0127 48.1333 74.5189L47.6948 76.3793L49.3349 76.3793Z" fill="white"/>
<path d="M52.9542 71.3472L57.4739 71.3472L57.4739 72.9727L54.6264 72.9727L54.6264 74.9764L57.2868 74.9764L57.2868 76.5897L54.6264 76.5897L54.6264 80.1122L52.9542 80.1122L52.9542 71.3472Z" fill="white"/>
<path d="M60.4235 71.3472L58.7515 71.3472L58.7515 80.1122L60.4235 80.1122L60.4235 71.3472Z" fill="white"/>
<path d="M61.8737 71.3472L63.5342 71.3472L63.5342 75.2221L63.5576 75.2221C63.7213 74.8837 63.8997 74.5727 64.0751 74.2617L65.7473 71.3502L67.8142 71.3502L65.3614 75.0818L67.9341 80.1122L65.987 80.1122L64.1628 76.3287L63.5372 77.2525L63.5372 80.1122L61.8766 80.1122L61.8766 71.3472L61.8737 71.3472Z" fill="white"/>
<path d="M70.5817 77.8614L70.0554 80.1122L68.3277 80.1122L70.5817 71.3472L72.783 71.3472L75.0926 80.1122L73.2771 80.1122L72.707 77.8614L70.5817 77.8614ZM72.4644 76.3793L72.0025 74.5189C71.8709 74.0005 71.7394 73.3478 71.6283 72.8294L71.6049 72.8294C71.4938 73.3509 71.3856 74.0127 71.2628 74.5189L70.8243 76.3793L72.4644 76.3793Z" fill="white"/>
</g>
</g>
<defs>
<filter id="filter0_d_1599_131" x="0.251953" y="0.000488281" width="139.496" height="169" filterUnits="userSpaceOnUse" color-interpolation-filters="sRGB">
<feFlood flood-opacity="0" result="BackgroundImageFix"/>
<feColorMatrix in="SourceAlpha" type="matrix" values="0 0 0 0 0 0 0 0 0 0 0 0 0 0 0 0 0 0 127 0" result="hardAlpha"/>
<feMorphology radius="5" operator="erode" in="SourceAlpha" result="effect1_dropShadow_1599_131"/>
<feOffset dx="5" dy="5"/>
<feGaussianBlur stdDeviation="15"/>
<feComposite in2="hardAlpha" operator="out"/>
<feColorMatrix type="matrix" values="0 0 0 0 0.835294 0 0 0 0 0.827451 0 0 0 0 0.811765 0 0 0 0.6 0"/>
<feBlend mode="normal" in2="BackgroundImageFix" result="effect1_dropShadow_1599_131"/>
<feBlend mode="normal" in="SourceGraphic" in2="effect1_dropShadow_1599_131" result="shape"/>
</filter>
</defs>
</svg>
