<svg width="136" height="156" viewBox="0 0 136 156" fill="none" xmlns="http://www.w3.org/2000/svg">
<g id="3" filter="url(#filter0_d_1599_152)">
<path id="Vector" d="M33.0242 92.3045H31.2369V90.605H33.0242C33.4935 90.605 33.874 90.9855 33.874 91.4548C33.874 91.924 33.4935 92.3045 33.0242 92.3045ZM31.2369 73.4857V71.7861H33.0242C33.4935 71.7861 33.874 72.1666 33.874 72.6359C33.874 73.1052 33.4935 73.4857 33.0242 73.4857H31.2369ZM31.2369 54.6668V52.9673H33.0242C33.4935 52.9673 33.874 53.3478 33.874 53.817C33.874 54.2863 33.4935 54.6668 33.0242 54.6668H31.2369ZM31.2369 35.8479V34.1484H33.0242C33.4935 34.1484 33.874 34.5289 33.874 34.9982C33.874 35.4674 33.4935 35.8479 33.0242 35.8479H31.2369ZM31.2369 111.123V109.424H33.0242C33.4935 109.424 33.874 109.804 33.874 110.274C33.874 110.743 33.4935 111.123 33.0242 111.123H31.2369ZM97.9448 22H30.859C28.8748 22 27.2363 23.6385 27.2363 25.6227V119.649C27.2363 121.633 28.8748 123.272 30.859 123.272H97.9448C100.898 123.272 103.298 120.872 103.298 117.919V27.3532C103.298 24.3995 100.898 22 97.9448 22ZM88.9823 52.3863C88.9823 52.8555 88.6018 53.236 88.1325 53.236H48.9616C48.4923 53.236 48.1118 52.8555 48.1118 52.3863V34.9982C48.1118 34.5289 48.4923 34.1484 48.9616 34.1484H88.1325C88.6018 34.1484 88.9823 34.5289 88.9823 34.9982V52.3863Z" fill="#6E65B6" stroke="white" stroke-width="4"/>
<g id="Group">
<path id="Vector_2" d="M29.2375 32.1484H23.5509C21.9771 32.1484 20.7012 33.4244 20.7012 34.9982C20.7012 36.572 21.9771 37.848 23.5509 37.848H29.2377L29.2375 32.1484ZM29.2375 50.9673H23.5509C21.9771 50.9673 20.7012 52.2432 20.7012 53.8171C20.7012 55.3909 21.9771 56.6668 23.5509 56.6668H29.2377L29.2375 50.9673ZM29.2375 69.7862H23.5509C21.9771 69.7862 20.7012 71.0621 20.7012 72.6359C20.7012 74.2097 21.9771 75.4857 23.5509 75.4857H29.2377L29.2375 69.7862ZM29.2375 88.605H23.5509C21.9771 88.605 20.7012 89.881 20.7012 91.4548C20.7012 93.0286 21.9771 94.3045 23.5509 94.3045H29.2377L29.2375 88.605ZM29.2375 107.424H23.5509C21.9771 107.424 20.7012 108.7 20.7012 110.274C20.7012 111.847 21.9771 113.123 23.5509 113.123H29.2377L29.2375 107.424Z" fill="#4C4394"/>
<path id="Vector_3" d="M50.1172 36.1433H86.9883V51.217H50.1172V36.1433Z" fill="#4C4394"/>
</g>
<g id="Vector_4">
<path d="M63.598 96.9117C63.598 99.7046 62.102 101.377 59.8731 101.377C57.6323 101.377 56.3069 99.4775 56.3069 97.0504C56.3069 94.5111 57.7699 92.6118 59.9988 92.6118C62.3264 92.6089 63.598 94.5583 63.598 96.9117ZM58.1169 97.012C58.1169 98.6842 58.814 99.855 59.9629 99.855C61.1207 99.855 61.7879 98.6223 61.7879 96.9766C61.7879 95.443 61.1447 94.1336 59.9629 94.1336C58.7931 94.1307 58.1169 95.3634 58.1169 97.012Z" fill="white"/>
<path d="M64.738 92.6118L66.4916 92.6118L66.4916 99.7147L69.5904 99.7147L69.5904 101.377L64.738 101.377L64.738 92.6118Z" fill="white"/>
<path d="M72.6558 92.6118L70.9446 92.6118L70.9446 101.377L72.6558 101.377L72.6558 92.6118Z" fill="white"/>
<path d="M55.5623 95.165C55.5623 97.721 52.8397 97.721 52.8397 97.721L51.4844 97.721L51.4844 101.377L50.1172 101.377L50.1172 96.2677L51.4156 96.2677L50.1172 94.0764L50.1172 92.6118L52.8397 92.6118C52.8397 92.6118 55.5623 92.6118 55.5623 95.165ZM54.207 95.165C54.207 94.0764 52.8397 94.0764 52.8397 94.0764L51.7417 94.0764L53.0163 96.2564C53.3783 96.2055 54.207 96.016 54.207 95.165Z" fill="white"/>
</g>
<g id="Vector_5">
<path d="M56.6482 113.699C56.1308 113.902 55.1514 114.183 54.175 114.183C52.8214 114.183 51.845 113.789 51.1609 113.036C50.4914 112.283 50.1172 111.163 50.1172 109.902C50.1289 107.049 51.921 105.418 54.3504 105.418C55.3064 105.418 56.0431 105.633 56.4056 105.824L56.0548 107.39C55.6484 107.172 55.1514 107.019 54.3387 107.019C52.9413 107.019 51.8742 107.921 51.8742 109.794C51.8742 111.578 52.8419 112.609 54.2159 112.609C54.5901 112.609 54.8971 112.558 55.0286 112.495L55.0286 110.688L53.8856 110.688L53.8856 109.173L56.6453 109.173L56.6453 113.699L56.6482 113.699Z" fill="white"/>
<path d="M57.9578 105.6C58.4957 105.497 59.2879 105.418 60.1913 105.418C61.2905 105.418 62.0623 105.612 62.5885 106.102C63.0388 106.514 63.2814 107.134 63.2814 107.933C63.2814 109.032 62.6119 109.791 61.9717 110.064L61.9717 110.103C62.4891 110.348 62.7727 110.914 62.9598 111.716C63.1908 112.709 63.41 113.847 63.5533 114.183L61.8372 114.183C61.7261 113.926 61.539 113.23 61.3315 112.155C61.1239 111.06 60.8023 110.775 60.1094 110.763L59.6154 110.763L59.6154 114.183L57.9548 114.183L57.9548 105.6L57.9578 105.6ZM59.6183 109.34L60.279 109.34C61.1151 109.34 61.6092 108.85 61.6092 108.087C61.6092 107.301 61.1473 106.886 60.3784 106.886C59.972 106.886 59.7411 106.913 59.6183 106.949L59.6183 109.34Z" fill="white"/>
<path d="M66.3047 111.932L65.7785 114.183L64.0507 114.183L66.3047 105.418L68.5061 105.418L70.8156 114.183L69.0002 114.183L68.4272 111.932L66.3047 111.932ZM68.1845 110.45L67.7226 108.59C67.591 108.068 67.4595 107.419 67.3484 106.9L67.325 106.9C67.2139 107.422 67.1057 108.083 66.983 108.59L66.5444 110.45L68.1845 110.45Z" fill="white"/>
<path d="M71.8038 105.418L76.3235 105.418L76.3235 107.043L73.476 107.043L73.476 109.047L76.1364 109.047L76.1364 110.661L73.476 110.661L73.476 114.183L71.8038 114.183L71.8038 105.418Z" fill="white"/>
<path d="M79.2731 105.418L77.6011 105.418L77.6011 114.183L79.2731 114.183L79.2731 105.418Z" fill="white"/>
<path d="M80.7233 105.418L82.3838 105.418L82.3838 109.293L82.4072 109.293C82.571 108.954 82.7493 108.643 82.9247 108.333L84.5969 105.421L86.6638 105.421L84.211 109.153L86.7837 114.183L84.8366 114.183L83.0124 110.4L82.3868 111.323L82.3868 114.183L80.7262 114.183L80.7262 105.418L80.7233 105.418Z" fill="white"/>
<path d="M89.4313 111.932L88.905 114.183L87.1773 114.183L89.4313 105.418L91.6326 105.418L93.9422 114.183L92.1267 114.183L91.5566 111.932L89.4313 111.932ZM91.314 110.45L90.8521 108.59C90.7205 108.071 90.589 107.419 90.4779 106.9L90.4545 106.9C90.3434 107.422 90.2352 108.083 90.1124 108.59L89.6739 110.45L91.314 110.45Z" fill="white"/>
</g>
</g>
<defs>
<filter id="filter0_d_1599_152" x="0.701172" y="0" width="134.596" height="155.272" filterUnits="userSpaceOnUse" color-interpolation-filters="sRGB">
<feFlood flood-opacity="0" result="BackgroundImageFix"/>
<feColorMatrix in="SourceAlpha" type="matrix" values="0 0 0 0 0 0 0 0 0 0 0 0 0 0 0 0 0 0 127 0" result="hardAlpha"/>
<feMorphology radius="5" operator="erode" in="SourceAlpha" result="effect1_dropShadow_1599_152"/>
<feOffset dx="5" dy="5"/>
<feGaussianBlur stdDeviation="15"/>
<feComposite in2="hardAlpha" operator="out"/>
<feColorMatrix type="matrix" values="0 0 0 0 0.835294 0 0 0 0 0.827451 0 0 0 0 0.811765 0 0 0 0.6 0"/>
<feBlend mode="normal" in2="BackgroundImageFix" result="effect1_dropShadow_1599_152"/>
<feBlend mode="normal" in="SourceGraphic" in2="effect1_dropShadow_1599_152" result="shape"/>
</filter>
</defs>
</svg>
