<svg width="170" height="169" viewBox="0 0 170 169" fill="none" xmlns="http://www.w3.org/2000/svg">
<g id="4" filter="url(#filter0_d_1599_125)">
<path id="Vector" d="M85.0542 73.1166L83.2041 74.9667L81.8952 76.2756L80.4891 75.0717C78.9109 73.7204 77.2211 72.5051 75.4379 71.4388L73.236 70.1222L75.0501 68.3081L77.6479 65.7103C79.2922 64.066 81.3089 63.0159 83.4253 62.5562C83.8395 60.3054 84.9149 58.1492 86.6545 56.4096L89.8487 53.2155C90.8356 52.2285 91.9714 51.4377 93.2066 50.8653C92.635 48.8562 92.3442 46.7742 92.3455 44.6787M85.0542 73.1166L115.027 67.36C127.534 67.3593 137.705 57.1873 137.705 44.6801C137.705 32.1725 127.533 22 115.025 22C102.518 22 92.3461 32.1719 92.3455 44.6787M85.0542 73.1166C85.0542 73.1166 85.0542 73.1165 85.0543 73.1165C85.5355 72.6355 86.3227 72.6356 86.8038 73.1167L86.8077 73.1205C86.9217 73.2339 87.0121 73.3688 87.0736 73.5173C87.1351 73.6659 87.1666 73.8251 87.1662 73.986V73.9913C87.1662 74.3254 87.0402 74.6296 86.8036 74.8663L84.9267 76.7432L83.633 78.0369L84.8067 79.4404C86.1422 81.0374 87.3398 82.7448 88.3866 84.5444L89.6927 86.7898L91.5296 84.9529L94.2099 82.2725C95.9481 80.5346 97.0232 78.3806 97.4382 76.1321C99.6113 75.6612 101.61 74.5788 103.217 72.9718L106.41 69.7786L85.0542 73.1166ZM92.3455 44.6787L94.3455 44.6799H92.3455C92.3455 44.6795 92.3455 44.6791 92.3455 44.6787ZM62.7895 114.521L62.341 114.633L61.9869 114.93L53.4735 122.077L47.5852 112.649L47.3404 112.257L46.9483 112.012L37.5202 106.124L44.6673 97.6107L44.9645 97.2567L45.0762 96.8082L47.7628 86.0218L58.0683 90.1883L58.4968 90.3616L58.9579 90.3292L70.0465 89.5512L69.2686 100.64L69.2363 101.101L69.4095 101.53L73.5761 111.835L62.7895 114.521ZM108.732 66.4683C110.774 67.0602 112.893 67.3613 115.026 67.36L106.411 69.7774C107.376 68.8142 108.16 67.6933 108.732 66.4683ZM94.061 65.5658L94.0607 65.5656C93.5797 65.0845 93.5797 64.2971 94.0607 63.816L97.2546 60.6221C97.2547 60.622 97.2548 60.622 97.2549 60.6219C97.4949 60.382 97.8079 60.2611 98.1296 60.2611C98.4517 60.2611 98.7647 60.3822 99.0044 60.6219L99.0045 60.622C99.4854 61.1028 99.4855 61.8901 99.0044 62.3712L95.8103 65.5653C95.8102 65.5654 95.8102 65.5655 95.8101 65.5656C95.5734 65.802 95.2691 65.9279 94.9353 65.9279C94.601 65.9279 94.297 65.8019 94.061 65.5658ZM115.025 56.8858H115.024C113.602 56.8871 112.199 56.6383 110.875 56.1573L112.877 54.1549L114.292 52.7406L112.877 51.3264L108.3 46.7487L106.885 45.3344L105.471 46.7487L103.506 48.7142C103.052 47.4246 102.818 46.0616 102.82 44.6822V44.6801C102.82 37.9516 108.297 32.4744 115.025 32.4744C121.754 32.4744 127.231 37.9516 127.231 44.6801C127.231 51.4086 121.754 56.8858 115.025 56.8858ZM56.7112 68.7726C37.8991 68.7726 22.5977 84.0743 22.5977 102.886C22.5977 121.699 37.8991 137 56.7112 137C75.5234 137 90.8248 121.699 90.8248 102.886C90.8248 84.0743 75.5234 68.7726 56.7112 68.7726Z" fill="#4C4394" stroke="white" stroke-width="4"/>
<path id="Vector_2" d="M56.7151 70.7726C39.0076 70.7726 24.6016 85.1789 24.6016 102.886C24.6016 120.594 39.0076 135 56.7151 135C74.4227 135 88.8287 120.594 88.8287 102.886C88.8287 85.1789 74.4227 70.7726 56.7151 70.7726ZM63.2768 116.462L53.0004 125.089L45.8928 113.709L34.5123 106.601L43.1394 96.3248L46.3823 83.3048L58.8218 88.3341L72.2066 87.3949L71.2676 100.78L76.297 113.219L63.2768 116.462ZM115.029 24C103.626 24 94.3494 33.2771 94.3494 44.6799C94.3479 47.2121 94.8142 49.7227 95.7248 52.0855C94.0525 52.5104 92.5187 53.3778 91.2668 54.6297L88.0727 57.8238C86.2756 59.6208 85.3332 61.9528 85.2418 64.3119C82.9901 64.4712 80.7836 65.4069 79.066 67.1245L76.4682 69.7223C78.3483 70.8465 80.1298 72.1278 81.7938 73.5525L83.644 71.7023C84.9063 70.4402 86.9598 70.4404 88.222 71.7025C88.5235 72.0024 88.7625 72.3591 88.9252 72.7519C89.088 73.1448 89.1712 73.566 89.1701 73.9913C89.1701 74.856 88.8333 75.6687 88.222 76.2803L86.3448 78.1574C87.7529 79.8412 89.0156 81.6414 90.1193 83.5387L92.7997 80.8582C94.5957 79.0625 95.5381 76.7323 95.6304 74.3749C97.9638 74.2118 100.136 73.2278 101.806 71.5575L105.001 68.3632C106.222 67.1436 107.094 65.6185 107.526 63.9471C109.917 64.8825 112.462 65.3618 115.029 65.36C126.432 65.36 135.709 56.0832 135.709 44.6801C135.709 33.2771 126.432 24 115.029 24ZM100.423 63.7854L97.2282 66.9798C96.6167 67.5911 95.8038 67.9279 94.9392 67.9279C94.0746 67.9279 93.2617 67.5913 92.6504 66.9798C91.3883 65.7177 91.3883 63.6639 92.6504 62.4018L95.8446 59.2077C96.4758 58.5766 97.3046 58.2611 98.1335 58.2611C98.9625 58.2611 99.7915 58.5766 100.423 59.2077C101.685 60.4696 101.685 62.5233 100.423 63.7854ZM115.029 58.8858C112.363 58.8882 109.75 58.1352 107.494 56.714L111.467 52.7406L106.889 48.1629L102.933 52.1189C101.552 49.884 100.821 47.3077 100.824 44.6801C100.824 36.847 107.196 30.4744 115.029 30.4744C122.862 30.4744 129.235 36.847 129.235 44.6801C129.235 52.5132 122.862 58.8858 115.029 58.8858Z" fill="#4C4394"/>
<circle id="Ellipse 27" cx="56.6368" cy="102.66" r="32.34" fill="#6E65B6"/>
<g id="Vector_3">
<path d="M48.2073 96.1744C48.2073 98.9673 46.7114 100.64 44.4825 100.64C42.2416 100.64 40.9163 98.7402 40.9163 96.313C40.9163 93.7738 42.3793 91.8745 44.6082 91.8745C46.9358 91.8716 48.2073 93.821 48.2073 96.1744ZM42.7263 96.2747C42.7263 97.9469 43.4234 99.1177 44.5723 99.1177C45.7301 99.1177 46.3973 97.885 46.3973 96.2393C46.3973 94.7057 45.754 93.3963 44.5723 93.3963C43.4025 93.3933 42.7263 94.6261 42.7263 96.2747Z" fill="white"/>
<path d="M49.3474 91.8745L51.101 91.8745L51.101 98.9774L54.1997 98.9774L54.1997 100.64L49.3474 100.64L49.3474 91.8745Z" fill="white"/>
<path d="M57.2651 91.8745L55.554 91.8745L55.554 100.64L57.2651 100.64L57.2651 91.8745Z" fill="white"/>
<path d="M40.1717 94.4277C40.1717 96.9837 37.4491 96.9837 37.4491 96.9837L36.0938 96.9837L36.0938 100.64L34.7266 100.64L34.7266 95.5304L36.025 95.5304L34.7266 93.3391L34.7266 91.8745L37.4491 91.8745C37.4491 91.8745 40.1717 91.8745 40.1717 94.4277ZM38.8164 94.4277C38.8164 93.3391 37.4491 93.3391 37.4491 93.3391L36.3511 93.3391L37.6256 95.5191C37.9876 95.4682 38.8164 95.2787 38.8164 94.4277Z" fill="white"/>
</g>
<g id="Vector_4">
<path d="M41.2576 112.962C40.7402 113.165 39.7608 113.446 38.7844 113.446C37.4308 113.446 36.4543 113.051 35.7702 112.299C35.1008 111.546 34.7266 110.425 34.7266 109.165C34.7383 106.312 36.5304 104.681 38.9598 104.681C39.9157 104.681 40.6525 104.896 41.015 105.087L40.6642 106.652C40.2578 106.434 39.7608 106.282 38.9481 106.282C37.5506 106.282 36.4836 107.184 36.4836 109.057C36.4836 110.841 37.4512 111.871 38.8253 111.871C39.1995 111.871 39.5065 111.821 39.638 111.758L39.638 109.95L38.4949 109.95L38.4949 108.436L41.2547 108.436L41.2547 112.962L41.2576 112.962Z" fill="white"/>
<path d="M42.5671 104.862C43.105 104.759 43.8973 104.681 44.8007 104.681C45.8999 104.681 46.6717 104.874 47.1979 105.365C47.6481 105.776 47.8908 106.397 47.8908 107.196C47.8908 108.294 47.2213 109.054 46.5811 109.326L46.5811 109.366C47.0985 109.611 47.3821 110.177 47.5692 110.979C47.8002 111.972 48.0194 113.11 48.1627 113.446L46.4466 113.446C46.3355 113.188 46.1484 112.492 45.9408 111.418C45.7333 110.322 45.4117 110.038 44.7188 110.026L44.2247 110.026L44.2247 113.446L42.5642 113.446L42.5642 104.862L42.5671 104.862ZM44.2277 108.603L44.8884 108.603C45.7245 108.603 46.2186 108.113 46.2186 107.35C46.2186 106.563 45.7566 106.149 44.9878 106.149C44.5814 106.149 44.3505 106.176 44.2277 106.212L44.2277 108.603Z" fill="white"/>
<path d="M50.9141 111.195L50.3879 113.446L48.6601 113.446L50.9141 104.681L53.1155 104.681L55.425 113.446L53.6095 113.446L53.0365 111.195L50.9141 111.195ZM52.7939 109.713L52.332 107.852C52.2004 107.331 52.0689 106.681 51.9578 106.163L51.9344 106.163C51.8233 106.684 51.7151 107.346 51.5923 107.852L51.1538 109.713L52.7939 109.713Z" fill="white"/>
<path d="M56.4132 104.681L60.9329 104.681L60.9329 106.306L58.0854 106.306L58.0854 108.31L60.7458 108.31L60.7458 109.923L58.0854 109.923L58.0854 113.446L56.4132 113.446L56.4132 104.681Z" fill="white"/>
<path d="M63.8825 104.681L62.2105 104.681L62.2105 113.446L63.8825 113.446L63.8825 104.681Z" fill="white"/>
<path d="M65.3327 104.681L66.9932 104.681L66.9932 108.556L67.0166 108.556C67.1803 108.217 67.3587 107.906 67.5341 107.595L69.2063 104.684L71.2732 104.684L68.8204 108.415L71.3931 113.446L69.446 113.446L67.6218 109.662L66.9961 110.586L66.9961 113.446L65.3356 113.446L65.3356 104.681L65.3327 104.681Z" fill="white"/>
<path d="M74.0406 111.195L73.5144 113.446L71.7866 113.446L74.0406 104.681L76.242 104.681L78.5516 113.446L76.7361 113.446L76.166 111.195L74.0406 111.195ZM75.9234 109.713L75.4615 107.852C75.3299 107.334 75.1983 106.681 75.0873 106.163L75.0639 106.163C74.9528 106.684 74.8446 107.346 74.7218 107.852L74.2833 109.713L75.9234 109.713Z" fill="white"/>
</g>
</g>
<defs>
<filter id="filter0_d_1599_125" x="0.597656" y="0" width="169.109" height="169" filterUnits="userSpaceOnUse" color-interpolation-filters="sRGB">
<feFlood flood-opacity="0" result="BackgroundImageFix"/>
<feColorMatrix in="SourceAlpha" type="matrix" values="0 0 0 0 0 0 0 0 0 0 0 0 0 0 0 0 0 0 127 0" result="hardAlpha"/>
<feMorphology radius="5" operator="erode" in="SourceAlpha" result="effect1_dropShadow_1599_125"/>
<feOffset dx="5" dy="5"/>
<feGaussianBlur stdDeviation="15"/>
<feComposite in2="hardAlpha" operator="out"/>
<feColorMatrix type="matrix" values="0 0 0 0 0.835294 0 0 0 0 0.827451 0 0 0 0 0.811765 0 0 0 0.6 0"/>
<feBlend mode="normal" in2="BackgroundImageFix" result="effect1_dropShadow_1599_125"/>
<feBlend mode="normal" in="SourceGraphic" in2="effect1_dropShadow_1599_125" result="shape"/>
</filter>
</defs>
</svg>
