<svg width="168" height="162" viewBox="0 0 168 162" fill="none" xmlns="http://www.w3.org/2000/svg">
<g id="5" filter="url(#filter0_d_1599_159)">
<circle id="Ellipse 31" cx="52.8445" cy="52.2815" r="30.1902" fill="#4C4394" stroke="white" stroke-width="4"/>
<g id="Vector">
<path d="M38.7285 52.224C38.7285 54.169 37.7125 55.3335 36.1986 55.3335C34.6766 55.3335 33.7764 54.0108 33.7764 52.3205C33.7764 50.5522 34.77 49.2295 36.2839 49.2295C37.8649 49.2274 38.7285 50.585 38.7285 52.224ZM35.0058 52.2938C35.0058 53.4583 35.4792 54.2737 36.2595 54.2737C37.0459 54.2737 37.4991 53.4152 37.4991 52.2692C37.4991 51.2012 37.0622 50.2893 36.2595 50.2893C35.465 50.2872 35.0058 51.1457 35.0058 52.2938Z" fill="white"/>
<path d="M39.5029 49.2295H40.6939V54.176H42.7986V55.3335H39.5029V49.2295Z" fill="white"/>
<path d="M44.8806 49.2295H43.7184V55.3335H44.8806V49.2295Z" fill="white"/>
<path d="M50.1927 54.9965C49.8331 55.1379 49.1523 55.3335 48.4736 55.3335C47.5328 55.3335 46.8541 55.0589 46.3786 54.5346C45.9132 54.0103 45.6531 53.2302 45.6531 52.3522C45.6612 50.3654 46.9069 49.2295 48.5955 49.2295C49.26 49.2295 49.7721 49.3793 50.0241 49.5124L49.7802 50.6026C49.4978 50.4507 49.1523 50.3446 48.5874 50.3446C47.6161 50.3446 46.8744 50.9729 46.8744 52.2773C46.8744 53.5193 47.547 54.2371 48.5021 54.2371C48.7622 54.2371 48.9755 54.2017 49.067 54.158V52.8994H48.2724V51.8446H50.1907V54.9965H50.1927Z" fill="white"/>
<path d="M51.103 49.356C51.4769 49.2843 52.0276 49.2295 52.6555 49.2295C53.4195 49.2295 53.956 49.3644 54.3218 49.7058C54.6347 49.9925 54.8034 50.4246 54.8034 50.981C54.8034 51.7461 54.338 52.2752 53.893 52.4649V52.4923C54.2527 52.663 54.4498 53.0571 54.5798 53.6157C54.7404 54.307 54.8928 55.0995 54.9923 55.3335H53.7995C53.7223 55.1543 53.5922 54.6695 53.448 53.9213C53.3037 53.1583 53.0802 52.9602 52.5986 52.9517H52.2551V55.3335H51.1009V49.356H51.103ZM52.2572 51.9611H52.7164C53.2976 51.9611 53.641 51.6197 53.641 51.0885C53.641 50.5405 53.3199 50.2517 52.7855 50.2517C52.5031 50.2517 52.3425 50.2707 52.2572 50.296V51.9611Z" fill="white"/>
<path d="M56.9048 53.7661L56.539 55.3335H55.3381L56.9048 49.2295H58.4349L60.0403 55.3335H58.7784L58.3801 53.7661H56.9048ZM58.2114 52.7339L57.8903 51.4383C57.7989 51.0751 57.7075 50.6227 57.6302 50.2617H57.614C57.5368 50.6249 57.4616 51.0857 57.3762 51.4383L57.0714 52.7339H58.2114Z" fill="white"/>
<path d="M60.7271 49.2295H63.8687V50.3615H61.8895V51.7569H63.7387V52.8804H61.8895V55.3335H60.7271V49.2295Z" fill="white"/>
<path d="M65.9189 49.2295H64.7567V55.3335H65.9189V49.2295Z" fill="white"/>
<path d="M66.9269 49.2295H68.0811V51.928H68.0974C68.2112 51.6923 68.3352 51.4758 68.4571 51.2592L69.6194 49.2316H71.0561L69.3512 51.8303L71.1394 55.3335H69.7861L68.518 52.6987L68.0832 53.342V55.3335H66.929V49.2295H66.9269Z" fill="white"/>
<path d="M72.9797 53.7661L72.6139 55.3335H71.413L72.9797 49.2295H74.5098L76.1152 55.3335H74.8533L74.457 53.7661H72.9797ZM74.2883 52.7339L73.9673 51.4383C73.8758 51.0773 73.7844 50.6227 73.7072 50.2617H73.6909C73.6137 50.6249 73.5385 51.0857 73.4532 51.4383L73.1484 52.7339H74.2883Z" fill="white"/>
<path d="M33.2706 51.0075C33.2706 52.7875 31.4214 52.7875 31.4214 52.7875H30.5009V55.3335H29.5723V51.7754H30.4542L29.5723 50.2494V49.2295H31.4214C31.4214 49.2295 33.2706 49.2295 33.2706 51.0075ZM32.3501 51.0075C32.3501 50.2494 31.4214 50.2494 31.4214 50.2494H30.6757L31.5413 51.7676C31.7872 51.7321 32.3501 51.6002 32.3501 51.0075Z" fill="white"/>
</g>
<path id="Vector_2" d="M89.0326 128.571L89.0322 128.571C86.3471 129.982 83.0238 129.289 81.1062 127.014C80.4978 126.299 80.0557 125.458 79.8118 124.551C79.5684 123.646 79.5286 122.699 79.6951 121.777L82.2467 106.89L71.4272 96.3435C71.4262 96.3426 71.4253 96.3417 71.4244 96.3408C70.5605 95.5038 69.9496 94.4407 69.6613 93.2729C69.3734 92.1063 69.4192 90.8823 69.7934 89.7405C70.1618 88.5963 70.8444 87.5787 71.7636 86.8039C72.6835 86.0284 73.803 85.5275 74.9941 85.3583C74.9956 85.3581 74.9971 85.3579 74.9986 85.3577L89.9503 83.1852L96.636 69.6369C96.6365 69.6358 96.6371 69.6348 96.6376 69.6337C97.1666 68.5535 97.9889 67.6439 99.0104 67.0088C100.031 66.3745 101.209 66.0398 102.41 66.0427C102.413 66.0428 102.415 66.0428 102.418 66.0428L102.411 68.0428C103.239 68.0395 104.052 68.2698 104.756 68.7071C105.46 69.1444 106.026 69.7712 106.39 70.5155L89.0326 128.571ZM89.0326 128.571L102.409 121.538C102.41 121.537 102.41 121.537 102.411 121.537C102.411 121.537 102.412 121.537 102.412 121.537C102.412 121.537 102.412 121.537 102.412 121.538L115.78 128.565C115.781 128.566 115.783 128.567 115.785 128.568C116.708 129.06 117.738 129.317 118.784 129.317H118.785C120.691 129.317 122.487 128.47 123.715 127.014C124.324 126.299 124.766 125.458 125.01 124.551C125.253 123.646 125.293 122.698 125.126 121.776L122.573 106.89L133.393 96.3422C133.394 96.3414 133.395 96.3405 133.396 96.3396C134.26 95.5027 134.871 94.4395 135.159 93.2716C135.447 92.1049 135.401 90.8808 135.027 89.739C134.658 88.5949 133.976 87.5774 133.057 86.8026C132.137 86.0272 131.017 85.5262 129.826 85.3571C129.825 85.3569 129.823 85.3567 129.822 85.3565L114.871 83.1841L108.187 69.6369C108.186 69.6358 108.185 69.6346 108.185 69.6335L89.0326 128.571Z" fill="#6E65B6" stroke="white" stroke-width="4"/>
<g id="Group 126">
<g id="Vector_3">
<path d="M96.9037 93.4445C96.9037 95.2685 95.9268 96.3606 94.4711 96.3606C93.0076 96.3606 92.142 95.1202 92.142 93.535C92.142 91.8766 93.0975 90.6362 94.5532 90.6362C96.0733 90.6343 96.9037 91.9074 96.9037 93.4445ZM93.3242 93.51C93.3242 94.602 93.7794 95.3667 94.5297 95.3667C95.2859 95.3667 95.7216 94.5616 95.7216 93.4868C95.7216 92.4853 95.3015 91.6301 94.5297 91.6301C93.7657 91.6282 93.3242 92.4333 93.3242 93.51Z" fill="white"/>
<path d="M97.6483 90.6362L98.7936 90.6362L98.7936 95.275L100.817 95.275L100.817 96.3606L97.6483 96.3606L97.6483 90.6362Z" fill="white"/>
<path d="M102.819 90.6362L101.702 90.6362L101.702 96.3606L102.819 96.3606L102.819 90.6362Z" fill="white"/>
<path d="M91.6558 92.3037C91.6558 93.973 89.8777 93.973 89.8777 93.973L88.9926 93.973L88.9926 96.3606L88.0996 96.3606L88.0996 93.0238L88.9476 93.0238L88.0996 91.5927L88.0996 90.6362L89.8777 90.6362C89.8777 90.6362 91.6558 90.6362 91.6558 92.3037ZM90.7706 92.3037C90.7706 91.5927 89.8777 91.5927 89.8777 91.5927L89.1606 91.5927L89.993 93.0164C90.2294 92.9832 90.7706 92.8595 90.7706 92.3037Z" fill="white"/>
</g>
<g id="Vector_4">
<path d="M92.365 104.408C92.027 104.54 91.3874 104.724 90.7497 104.724C89.8657 104.724 89.228 104.466 88.7812 103.975C88.344 103.483 88.0996 102.751 88.0996 101.928C88.1072 100.065 89.2776 98.9995 90.8643 98.9995C91.4886 98.9995 91.9697 99.14 92.2065 99.2649L91.9774 100.287C91.712 100.145 91.3874 100.045 90.8566 100.045C89.944 100.045 89.2471 100.634 89.2471 101.858C89.2471 103.023 89.8791 103.696 90.7764 103.696C91.0208 103.696 91.2213 103.662 91.3072 103.622L91.3072 102.441L90.5607 102.441L90.5607 101.452L92.3631 101.452L92.3631 104.408L92.365 104.408Z" fill="white"/>
<path d="M93.2202 99.1181C93.5715 99.0509 94.0889 98.9995 94.6789 98.9995C95.3968 98.9995 95.9008 99.126 96.2445 99.4462C96.5385 99.7151 96.697 100.12 96.697 100.642C96.697 101.36 96.2598 101.856 95.8417 102.034L95.8417 102.059C96.1796 102.219 96.3648 102.589 96.487 103.113C96.6378 103.761 96.781 104.504 96.8746 104.724L95.7538 104.724C95.6813 104.556 95.5591 104.101 95.4235 103.399C95.288 102.684 95.0779 102.498 94.6254 102.49L94.3028 102.49L94.3028 104.724L93.2183 104.724L93.2183 99.1181L93.2202 99.1181ZM94.3047 101.561L94.7362 101.561C95.2822 101.561 95.6049 101.241 95.6049 100.743C95.6049 100.229 95.3032 99.9582 94.8011 99.9582C94.5357 99.9582 94.3849 99.976 94.3047 99.9997L94.3047 101.561Z" fill="white"/>
<path d="M98.6715 103.254L98.3278 104.724L97.1994 104.724L98.6715 98.9995L100.109 98.9995L101.618 104.724L100.432 104.724L100.058 103.254L98.6715 103.254ZM99.8992 102.286L99.5975 101.071C99.5116 100.73 99.4257 100.306 99.3531 99.9675L99.3378 99.9675C99.2653 100.308 99.1946 100.74 99.1144 101.071L98.8281 102.286L99.8992 102.286Z" fill="white"/>
<path d="M102.263 98.9995L105.215 98.9995L105.215 100.061L103.355 100.061L103.355 101.37L105.092 101.37L105.092 102.423L103.355 102.423L103.355 104.724L102.263 104.724L102.263 98.9995Z" fill="white"/>
<path d="M107.141 98.9995L106.049 98.9995L106.049 104.724L107.141 104.724L107.141 98.9995Z" fill="white"/>
<path d="M108.088 98.9995L109.173 98.9995L109.173 101.53L109.188 101.53C109.295 101.309 109.411 101.106 109.526 100.903L110.618 99.0015L111.968 99.0015L110.366 101.439L112.046 104.724L110.774 104.724L109.583 102.253L109.175 102.856L109.175 104.724L108.09 104.724L108.09 98.9995L108.088 98.9995Z" fill="white"/>
<path d="M113.775 103.254L113.432 104.724L112.303 104.724L113.775 98.9995L115.213 98.9995L116.721 104.724L115.536 104.724L115.163 103.254L113.775 103.254ZM115.005 102.286L114.703 101.071C114.617 100.732 114.531 100.306 114.459 99.9675L114.443 99.9675C114.371 100.308 114.3 100.74 114.22 101.071L113.934 102.286L115.005 102.286Z" fill="white"/>
</g>
</g>
</g>
<defs>
<filter id="filter0_d_1599_159" x="0.654297" y="0.0913086" width="166.691" height="161.226" filterUnits="userSpaceOnUse" color-interpolation-filters="sRGB">
<feFlood flood-opacity="0" result="BackgroundImageFix"/>
<feColorMatrix in="SourceAlpha" type="matrix" values="0 0 0 0 0 0 0 0 0 0 0 0 0 0 0 0 0 0 127 0" result="hardAlpha"/>
<feMorphology radius="5" operator="erode" in="SourceAlpha" result="effect1_dropShadow_1599_159"/>
<feOffset dx="5" dy="5"/>
<feGaussianBlur stdDeviation="15"/>
<feComposite in2="hardAlpha" operator="out"/>
<feColorMatrix type="matrix" values="0 0 0 0 0.835294 0 0 0 0 0.827451 0 0 0 0 0.811765 0 0 0 0.6 0"/>
<feBlend mode="normal" in2="BackgroundImageFix" result="effect1_dropShadow_1599_159"/>
<feBlend mode="normal" in="SourceGraphic" in2="effect1_dropShadow_1599_159" result="shape"/>
</filter>
</defs>
</svg>
