<svg width="152" height="172" viewBox="0 0 152 172" fill="none" xmlns="http://www.w3.org/2000/svg">
<g id="6" filter="url(#filter0_d_1599_117)">
<g id="Group 124">
<g id="Subtract">
<mask id="path-1-outside-1_1599_117" maskUnits="userSpaceOnUse" x="20.2773" y="20" width="72" height="122" fill="black">
<rect fill="white" x="20.2773" y="20" width="72" height="122"/>
<path fill-rule="evenodd" clip-rule="evenodd" d="M66.3771 33.8014C67.0969 34.5212 67.5013 35.4976 67.5013 36.5156V48.0312H32.9545V36.5156C32.9545 35.4976 33.3589 34.5212 34.0787 33.8014C34.7986 33.0815 35.775 32.6771 36.793 32.6771H63.6628C64.6808 32.6771 65.6572 33.0815 66.3771 33.8014ZM57.3428 25.5621C57.7028 25.9221 57.905 26.4102 57.905 26.9193V28.8385H42.5508V26.9193C42.5508 26.4102 42.753 25.9221 43.113 25.5621C43.4729 25.2022 43.9611 25 44.4701 25H55.9857C56.4947 25 56.9829 25.2022 57.3428 25.5621ZM25.2774 68.4849C25.2673 62.3047 27.6315 56.3567 31.8816 51.8698H68.5742C72.8242 56.3567 75.1885 62.3047 75.1784 68.4849V85.4717H54.3242V119.692C54.3242 126.508 57.6443 132.561 62.753 136.318H34.8737C32.3296 136.315 29.8905 135.303 28.0914 133.504C26.2924 131.705 25.2804 129.266 25.2774 126.721V68.4849ZM75.1784 89.4717V126.721C75.1754 129.266 74.1633 131.705 72.3643 133.504C71.555 134.313 70.6161 134.963 69.5964 135.434C63.0473 133.2 58.3242 126.987 58.3242 119.692V89.4717H75.1784ZM71.0673 34.5964H79.9766C81.7582 34.5964 83.4668 35.3041 84.7265 36.5638C85.9863 37.8236 86.694 39.5322 86.694 41.3138C86.694 43.0954 85.9863 44.804 84.7265 46.0638C83.4668 47.3235 81.7582 48.0312 79.9766 48.0312H71.3399V44.1927H79.9766C80.7401 44.1927 81.4724 43.8894 82.0123 43.3495C82.5522 42.8096 82.8555 42.0773 82.8555 41.3138C82.8555 40.5503 82.5522 39.818 82.0123 39.2781C81.4724 38.7382 80.7401 38.4349 79.9766 38.4349H71.3399V36.5156C71.3318 35.8668 71.2402 35.2218 71.0673 34.5964Z"/>
</mask>
<path fill-rule="evenodd" clip-rule="evenodd" d="M66.3771 33.8014C67.0969 34.5212 67.5013 35.4976 67.5013 36.5156V48.0312H32.9545V36.5156C32.9545 35.4976 33.3589 34.5212 34.0787 33.8014C34.7986 33.0815 35.775 32.6771 36.793 32.6771H63.6628C64.6808 32.6771 65.6572 33.0815 66.3771 33.8014ZM57.3428 25.5621C57.7028 25.9221 57.905 26.4102 57.905 26.9193V28.8385H42.5508V26.9193C42.5508 26.4102 42.753 25.9221 43.113 25.5621C43.4729 25.2022 43.9611 25 44.4701 25H55.9857C56.4947 25 56.9829 25.2022 57.3428 25.5621ZM25.2774 68.4849C25.2673 62.3047 27.6315 56.3567 31.8816 51.8698H68.5742C72.8242 56.3567 75.1885 62.3047 75.1784 68.4849V85.4717H54.3242V119.692C54.3242 126.508 57.6443 132.561 62.753 136.318H34.8737C32.3296 136.315 29.8905 135.303 28.0914 133.504C26.2924 131.705 25.2804 129.266 25.2774 126.721V68.4849ZM75.1784 89.4717V126.721C75.1754 129.266 74.1633 131.705 72.3643 133.504C71.555 134.313 70.6161 134.963 69.5964 135.434C63.0473 133.2 58.3242 126.987 58.3242 119.692V89.4717H75.1784ZM71.0673 34.5964H79.9766C81.7582 34.5964 83.4668 35.3041 84.7265 36.5638C85.9863 37.8236 86.694 39.5322 86.694 41.3138C86.694 43.0954 85.9863 44.804 84.7265 46.0638C83.4668 47.3235 81.7582 48.0312 79.9766 48.0312H71.3399V44.1927H79.9766C80.7401 44.1927 81.4724 43.8894 82.0123 43.3495C82.5522 42.8096 82.8555 42.0773 82.8555 41.3138C82.8555 40.5503 82.5522 39.818 82.0123 39.2781C81.4724 38.7382 80.7401 38.4349 79.9766 38.4349H71.3399V36.5156C71.3318 35.8668 71.2402 35.2218 71.0673 34.5964Z" fill="#4C4394"/>
<path d="M66.3771 33.8014L69.9126 30.2658L69.9126 30.2658L66.3771 33.8014ZM67.5013 48.0312V53.0312H72.5013V48.0312H67.5013ZM32.9545 48.0312H27.9545V53.0312H32.9545V48.0312ZM34.0787 33.8014L37.6143 37.3369L37.6143 37.3369L34.0787 33.8014ZM57.3428 25.5621L60.8784 22.0266L60.8784 22.0266L57.3428 25.5621ZM57.905 28.8385V33.8385H62.905V28.8385H57.905ZM42.5508 28.8385H37.5508V33.8385H42.5508V28.8385ZM43.113 25.5621L46.6485 29.0977L46.6485 29.0977L43.113 25.5621ZM31.8816 51.8698V46.8698H29.7307L28.2515 48.4314L31.8816 51.8698ZM25.2774 68.4849H30.2774L30.2774 68.4768L25.2774 68.4849ZM68.5742 51.8698L72.2043 48.4314L70.7251 46.8698H68.5742V51.8698ZM75.1784 68.4849L70.1784 68.4768V68.4849H75.1784ZM75.1784 85.4717V90.4717H80.1784V85.4717H75.1784ZM54.3242 85.4717V80.4717H49.3242V85.4717H54.3242ZM62.753 136.318V141.318H77.9906L65.7153 132.29L62.753 136.318ZM34.8737 136.318L34.8677 141.318H34.8737V136.318ZM28.0914 133.504L24.5559 137.039L24.5559 137.039L28.0914 133.504ZM25.2774 126.721H20.2774L20.2774 126.727L25.2774 126.721ZM75.1784 126.721L80.1784 126.727V126.721H75.1784ZM75.1784 89.4717H80.1784V84.4717H75.1784V89.4717ZM72.3643 133.504L68.8288 129.968L68.8288 129.968L72.3643 133.504ZM69.5964 135.434L67.9825 140.166L69.8754 140.812L71.6913 139.974L69.5964 135.434ZM58.3242 89.4717V84.4717H53.3242V89.4717H58.3242ZM71.0673 34.5964V29.5964H64.4982L66.248 35.9282L71.0673 34.5964ZM84.7265 36.5638L81.191 40.0994L81.191 40.0994L84.7265 36.5638ZM71.3399 48.0312H66.3399V53.0312H71.3399V48.0312ZM71.3399 44.1927V39.1927H66.3399V44.1927H71.3399ZM82.0123 43.3495L85.5478 46.885L85.5478 46.885L82.0123 43.3495ZM82.0123 39.2781L85.5478 35.7426L85.5478 35.7426L82.0123 39.2781ZM71.3399 38.4349H66.3399V43.4349H71.3399V38.4349ZM71.3399 36.5156H76.3399V36.4844L76.3395 36.4532L71.3399 36.5156ZM72.5013 36.5156C72.5013 34.1715 71.5701 31.9234 69.9126 30.2658L62.8415 37.3369C62.6237 37.1191 62.5013 36.8237 62.5013 36.5156H72.5013ZM72.5013 48.0312V36.5156H62.5013V48.0312H72.5013ZM32.9545 53.0312H67.5013V43.0312H32.9545V53.0312ZM27.9545 36.5156V48.0312H37.9545V36.5156H27.9545ZM30.5432 30.2658C28.8857 31.9234 27.9545 34.1715 27.9545 36.5156H37.9545C37.9545 36.8237 37.8321 37.1191 37.6143 37.3369L30.5432 30.2658ZM36.793 27.6771C34.4489 27.6771 32.2008 28.6083 30.5432 30.2658L37.6143 37.3369C37.3965 37.5547 37.101 37.6771 36.793 37.6771V27.6771ZM63.6628 27.6771H36.793V37.6771H63.6628V27.6771ZM69.9126 30.2658C68.255 28.6083 66.0069 27.6771 63.6628 27.6771V37.6771C63.3548 37.6771 63.0593 37.5547 62.8415 37.3369L69.9126 30.2658ZM62.905 26.9193C62.905 25.0842 62.176 23.3242 60.8784 22.0266L53.8073 29.0977C53.2295 28.5199 52.905 27.7363 52.905 26.9193H62.905ZM62.905 28.8385V26.9193H52.905V28.8385H62.905ZM42.5508 33.8385H57.905V23.8385H42.5508V33.8385ZM37.5508 26.9193V28.8385H47.5508V26.9193H37.5508ZM39.5774 22.0266C38.2798 23.3242 37.5508 25.0842 37.5508 26.9193H47.5508C47.5508 27.7363 47.2262 28.5199 46.6485 29.0977L39.5774 22.0266ZM44.4701 20C42.635 20 40.875 20.729 39.5774 22.0266L46.6485 29.0977C46.0707 29.6754 45.2871 30 44.4701 30V20ZM55.9857 20H44.4701V30H55.9857V20ZM60.8784 22.0266C59.5808 20.729 57.8208 20 55.9857 20V30C55.1687 30 54.3851 29.6754 53.8073 29.0977L60.8784 22.0266ZM28.2515 48.4314C23.1199 53.849 20.2653 61.0308 20.2774 68.493L30.2774 68.4768C30.2694 63.5786 32.1432 58.8644 35.5116 55.3082L28.2515 48.4314ZM68.5742 46.8698H31.8816V56.8698H68.5742V46.8698ZM80.1784 68.493C80.1905 61.0308 77.3359 53.849 72.2043 48.4314L64.9441 55.3082C68.3126 58.8644 70.1864 63.5786 70.1784 68.4768L80.1784 68.493ZM80.1784 85.4717V68.4849H70.1784V85.4717H80.1784ZM75.1784 80.4717H54.3242V90.4717H75.1784V80.4717ZM49.3242 85.4717V119.692H59.3242V85.4717H49.3242ZM49.3242 119.692C49.3242 128.17 53.4595 135.689 59.7906 140.346L65.7153 132.29C61.8291 129.432 59.3242 124.846 59.3242 119.692H49.3242ZM34.8737 141.318H62.753V131.318H34.8737V141.318ZM24.5559 137.039C27.2911 139.774 30.9996 141.313 34.8677 141.318L34.8797 131.318C33.6596 131.316 32.4898 130.831 31.627 129.968L24.5559 137.039ZM20.2774 126.727C20.282 130.596 21.8207 134.304 24.5559 137.039L31.627 129.968C30.7642 129.105 30.2788 127.936 30.2774 126.715L20.2774 126.727ZM20.2774 68.4849V126.721H30.2774V68.4849H20.2774ZM80.1784 126.721V89.4717H70.1784V126.721H80.1784ZM75.8999 137.039C78.6351 134.304 80.1738 130.596 80.1784 126.727L70.1784 126.715C70.177 127.936 69.6916 129.105 68.8288 129.968L75.8999 137.039ZM71.6913 139.974C73.2417 139.258 74.6694 138.27 75.8999 137.039L68.8288 129.968C68.4406 130.356 67.9905 130.668 67.5014 130.894L71.6913 139.974ZM71.2102 130.701C66.6193 129.136 63.3242 124.778 63.3242 119.692H53.3242C53.3242 129.196 59.4754 137.265 67.9825 140.166L71.2102 130.701ZM63.3242 119.692V89.4717H53.3242V119.692H63.3242ZM58.3242 94.4717H75.1784V84.4717H58.3242V94.4717ZM79.9766 29.5964H71.0673V39.5964H79.9766V29.5964ZM88.2621 33.0283C86.0646 30.8309 83.0843 29.5964 79.9766 29.5964V39.5964C80.4321 39.5964 80.8689 39.7773 81.191 40.0994L88.2621 33.0283ZM91.694 41.3138C91.694 38.2061 90.4595 35.2258 88.2621 33.0283L81.191 40.0994C81.5131 40.4215 81.694 40.8583 81.694 41.3138H91.694ZM88.2621 49.5993C90.4595 47.4018 91.694 44.4215 91.694 41.3138H81.694C81.694 41.7693 81.5131 42.2061 81.191 42.5282L88.2621 49.5993ZM79.9766 53.0312C83.0843 53.0312 86.0646 51.7967 88.2621 49.5993L81.191 42.5282C80.8689 42.8503 80.4321 43.0312 79.9766 43.0312V53.0312ZM71.3399 53.0312H79.9766V43.0312H71.3399V53.0312ZM66.3399 44.1927V48.0312H76.3399V44.1927H66.3399ZM79.9766 39.1927H71.3399V49.1927H79.9766V39.1927ZM78.4768 39.814C78.8745 39.4162 79.414 39.1927 79.9766 39.1927V49.1927C82.0662 49.1927 84.0702 48.3626 85.5478 46.885L78.4768 39.814ZM77.8555 41.3138C77.8555 40.7513 78.079 40.2118 78.4768 39.814L85.5478 46.885C87.0254 45.4074 87.8555 43.4034 87.8555 41.3138H77.8555ZM78.4767 42.8136C78.079 42.4158 77.8555 41.8763 77.8555 41.3138H87.8555C87.8555 39.2242 87.0254 37.2202 85.5478 35.7426L78.4767 42.8136ZM79.9766 43.4349C79.414 43.4349 78.8745 43.2114 78.4768 42.8137L85.5478 35.7426C84.0702 34.265 82.0662 33.4349 79.9766 33.4349V43.4349ZM71.3399 43.4349H79.9766V33.4349H71.3399V43.4349ZM66.3399 36.5156V38.4349H76.3399V36.5156H66.3399ZM66.248 35.9282C66.3065 36.1399 66.3375 36.3584 66.3403 36.5781L76.3395 36.4532C76.326 35.3753 76.1738 34.3036 75.8867 33.2645L66.248 35.9282Z" fill="white" mask="url(#path-1-outside-1_1599_117)"/>
</g>
<path id="Vector" d="M84.2541 138.818C94.3376 138.818 102.62 130.98 103.331 121.074H104.742C112.73 121.074 119.225 114.579 119.225 106.591C119.225 98.6024 112.73 92.1073 104.741 92.1073H103.38V89.4717V86.9717H100.88H58.3242H55.8242V89.4717V119.692C55.8242 130.24 64.4019 138.818 74.9503 138.818H84.2541ZM104.741 109.231H103.38V103.951H104.741C106.195 103.951 107.381 105.137 107.381 106.591C107.381 108.044 106.195 109.231 104.741 109.231Z" fill="#6E65B6" stroke="white" stroke-width="5"/>
</g>
<g id="Vector_2">
<path d="M38.738 72.7988C38.738 74.4583 37.8711 75.4519 36.5794 75.4519C35.2808 75.4519 34.5128 74.3234 34.5128 72.8812C34.5128 71.3724 35.3606 70.2439 36.6522 70.2439C38.0011 70.2421 38.738 71.4005 38.738 72.7988ZM35.5617 72.8584C35.5617 73.852 35.9657 74.5477 36.6314 74.5477C37.3024 74.5477 37.689 73.8152 37.689 72.8374C37.689 71.9262 37.3163 71.1481 36.6314 71.1481C35.9535 71.1464 35.5617 71.8788 35.5617 72.8584Z" fill="white"/>
<path d="M39.3987 70.2439H40.4149V74.4643H42.2106V75.4519H39.3987V70.2439Z" fill="white"/>
<path d="M43.9871 70.2439H42.9954V75.4519H43.9871V70.2439Z" fill="white"/>
<path d="M48.5194 75.1643C48.2125 75.285 47.6317 75.4519 47.0526 75.4519C46.2499 75.4519 45.6708 75.2176 45.2651 74.7703C44.8681 74.323 44.6461 73.6573 44.6461 72.9082C44.6531 71.2131 45.7159 70.2439 47.1567 70.2439C47.7236 70.2439 48.1605 70.3717 48.3755 70.4853L48.1675 71.4154C47.9265 71.2858 47.6317 71.1953 47.1497 71.1953C46.321 71.1953 45.6881 71.7314 45.6881 72.8443C45.6881 73.904 46.262 74.5164 47.0769 74.5164C47.2988 74.5164 47.4809 74.4863 47.5589 74.449V73.3751H46.881V72.4751H48.5177V75.1643H48.5194Z" fill="white"/>
<path d="M49.296 70.3518C49.615 70.2907 50.0849 70.2439 50.6206 70.2439C51.2725 70.2439 51.7302 70.359 52.0423 70.6503C52.3093 70.8949 52.4532 71.2636 52.4532 71.7383C52.4532 72.3911 52.0562 72.8425 51.6765 73.0043V73.0277C51.9834 73.1734 52.1516 73.5097 52.2625 73.9862C52.3995 74.5761 52.5295 75.2523 52.6145 75.4519H51.5967C51.5309 75.299 51.4199 74.8854 51.2968 74.247C51.1737 73.596 50.983 73.427 50.5721 73.4198H50.2791V75.4519H49.2943V70.3518H49.296ZM50.2808 72.5745H50.6726C51.1685 72.5745 51.4615 72.2832 51.4615 71.83C51.4615 71.3625 51.1876 71.1161 50.7316 71.1161C50.4906 71.1161 50.3536 71.1323 50.2808 71.1539V72.5745Z" fill="white"/>
<path d="M54.2462 74.1146L53.9341 75.4519H52.9095L54.2462 70.2439H55.5517L56.9214 75.4519H55.8448L55.5049 74.1146H54.2462ZM55.361 73.2339L55.0871 72.1285C55.0091 71.8186 54.931 71.4326 54.8652 71.1246H54.8513C54.7854 71.4344 54.7213 71.8277 54.6484 72.1285L54.3884 73.2339H55.361Z" fill="white"/>
<path d="M57.5075 70.2439H60.1879V71.2097H58.4992V72.4003H60.0769V73.3589H58.4992V75.4519H57.5075V70.2439Z" fill="white"/>
<path d="M61.9372 70.2439H60.9456V75.4519H61.9372V70.2439Z" fill="white"/>
<path d="M62.7972 70.2439H63.782V72.5463H63.7959C63.893 72.3452 63.9987 72.1604 64.1027 71.9757L65.0945 70.2457H66.3203L64.8656 72.463L66.3913 75.4519H65.2366L64.1548 73.2038L63.7837 73.7527V75.4519H62.7989V70.2439H62.7972Z" fill="white"/>
<path d="M67.9615 74.1146L67.6494 75.4519H66.6247L67.9615 70.2439H69.267L70.6367 75.4519H69.56L69.222 74.1146H67.9615ZM69.078 73.2339L68.8041 72.1285C68.7261 71.8204 68.6481 71.4326 68.5822 71.1246H68.5683C68.5024 71.4344 68.4383 71.8277 68.3655 72.1285L68.1054 73.2339H69.078Z" fill="white"/>
<path d="M34.0813 71.7609C34.0813 73.2797 32.5035 73.2797 32.5035 73.2797H31.7181V75.4519H30.9258V72.4161H31.6782L30.9258 71.1141V70.2439H32.5035C32.5035 70.2439 34.0813 70.2439 34.0813 71.7609ZM33.2959 71.7609C33.2959 71.1141 32.5035 71.1141 32.5035 71.1141H31.8672L32.6058 72.4094C32.8156 72.3792 33.2959 72.2666 33.2959 71.7609Z" fill="white"/>
</g>
<g id="Vector_3">
<path d="M69.6224 109.002C69.6224 110.346 68.9198 111.152 67.873 111.152C66.8205 111.152 66.1981 110.237 66.1981 109.068C66.1981 107.846 66.8852 106.931 67.932 106.931C69.0252 106.929 69.6224 107.868 69.6224 109.002ZM67.0482 109.05C67.0482 109.855 67.3756 110.419 67.9151 110.419C68.4589 110.419 68.7723 109.825 68.7723 109.033C68.7723 108.294 68.4702 107.664 67.9151 107.664C67.3657 107.662 67.0482 108.256 67.0482 109.05Z" fill="white"/>
<path d="M70.1578 106.931H70.9814V110.351H72.4368V111.152H70.1578V106.931Z" fill="white"/>
<path d="M73.8765 106.931H73.0728V111.152H73.8765V106.931Z" fill="white"/>
<path d="M77.5497 110.919C77.301 111.016 76.8303 111.152 76.361 111.152C75.7104 111.152 75.2411 110.962 74.9123 110.599C74.5905 110.237 74.4106 109.697 74.4106 109.09C74.4163 107.716 75.2776 106.931 76.4453 106.931C76.9048 106.931 77.2588 107.034 77.4331 107.127L77.2645 107.88C77.0692 107.775 76.8303 107.702 76.4397 107.702C75.768 107.702 75.2551 108.136 75.2551 109.038C75.2551 109.897 75.7202 110.394 76.3806 110.394C76.5605 110.394 76.708 110.369 76.7713 110.339V109.469H76.2219V108.739H77.5483V110.919H77.5497Z" fill="white"/>
<path d="M78.1791 107.018C78.4377 106.969 78.8184 106.931 79.2526 106.931C79.781 106.931 80.1519 107.024 80.4048 107.26C80.6212 107.459 80.7379 107.757 80.7379 108.142C80.7379 108.671 80.4161 109.037 80.1084 109.168V109.187C80.3571 109.305 80.4934 109.578 80.5833 109.964C80.6943 110.442 80.7997 110.99 80.8685 111.152H80.0437C79.9903 111.028 79.9004 110.693 79.8006 110.175C79.7009 109.648 79.5463 109.511 79.2133 109.505H78.9758V111.152H78.1777V107.018H78.1791ZM78.9772 108.82H79.2948C79.6967 108.82 79.9341 108.584 79.9341 108.216C79.9341 107.837 79.7121 107.638 79.3426 107.638C79.1472 107.638 79.0362 107.651 78.9772 107.668V108.82Z" fill="white"/>
<path d="M82.191 110.068L81.938 111.152H81.1076L82.191 106.931H83.249L84.3591 111.152H83.4865L83.2111 110.068H82.191ZM83.0945 109.354L82.8725 108.458C82.8092 108.207 82.746 107.894 82.6926 107.645H82.6814C82.628 107.896 82.576 108.214 82.517 108.458L82.3062 109.354H83.0945Z" fill="white"/>
<path d="M84.834 106.931H87.0064V107.714H85.6378V108.679H86.9165V109.455H85.6378V111.152H84.834V106.931Z" fill="white"/>
<path d="M88.4241 106.931H87.6204V111.152H88.4241V106.931Z" fill="white"/>
<path d="M89.1211 106.931H89.9192V108.797H89.9305C90.0092 108.634 90.0949 108.484 90.1792 108.334L90.9829 106.932H91.9763L90.7974 108.729L92.034 111.152H91.0981L90.2213 109.33L89.9206 109.775V111.152H89.1225V106.931H89.1211Z" fill="white"/>
<path d="M93.3065 110.068L93.0536 111.152H92.2231L93.3065 106.931H94.3645L95.4746 111.152H94.602L94.328 110.068H93.3065ZM94.2114 109.354L93.9894 108.458C93.9261 108.209 93.8629 107.894 93.8095 107.645H93.7983C93.7449 107.896 93.6929 108.214 93.6339 108.458L93.4231 109.354H94.2114Z" fill="white"/>
<path d="M65.8484 108.16C65.8484 109.391 64.5697 109.391 64.5697 109.391H63.9332V111.152H63.291V108.691H63.9008L63.291 107.636V106.931H64.5697C64.5697 106.931 65.8484 106.931 65.8484 108.16ZM65.2118 108.16C65.2118 107.636 64.5697 107.636 64.5697 107.636H64.054L64.6526 108.686C64.8226 108.661 65.2118 108.57 65.2118 108.16Z" fill="white"/>
</g>
</g>
<defs>
<filter id="filter0_d_1599_117" x="0.277344" y="0" width="151.447" height="171.318" filterUnits="userSpaceOnUse" color-interpolation-filters="sRGB">
<feFlood flood-opacity="0" result="BackgroundImageFix"/>
<feColorMatrix in="SourceAlpha" type="matrix" values="0 0 0 0 0 0 0 0 0 0 0 0 0 0 0 0 0 0 127 0" result="hardAlpha"/>
<feMorphology radius="5" operator="erode" in="SourceAlpha" result="effect1_dropShadow_1599_117"/>
<feOffset dx="5" dy="5"/>
<feGaussianBlur stdDeviation="15"/>
<feComposite in2="hardAlpha" operator="out"/>
<feColorMatrix type="matrix" values="0 0 0 0 0.835294 0 0 0 0 0.827451 0 0 0 0 0.811765 0 0 0 0.6 0"/>
<feBlend mode="normal" in2="BackgroundImageFix" result="effect1_dropShadow_1599_117"/>
<feBlend mode="normal" in="SourceGraphic" in2="effect1_dropShadow_1599_117" result="shape"/>
</filter>
</defs>
</svg>
