<svg width="157" height="157" viewBox="0 0 157 157" fill="none" xmlns="http://www.w3.org/2000/svg">
<g id="7" filter="url(#filter0_d_1599_111)">
<path id="Vector" d="M84.0089 39.1739L82.5947 40.5881L84.0089 42.0023L104.859 62.8528L106.274 64.267L107.688 62.8528L123.326 47.2149C124.162 46.379 124.631 45.2453 124.631 44.0632C124.631 42.881 124.162 41.7473 123.326 40.9114L105.95 23.536C105.114 22.7001 103.981 22.2305 102.799 22.2305C101.616 22.2305 100.483 22.7001 99.6468 23.536L84.0089 39.1739ZM79.8872 39.1739L78.473 37.7596L77.0587 39.1739L73.5837 42.6489L72.1694 44.0632L73.5837 45.4774L101.384 73.2781L102.799 74.6923L104.213 73.2781L107.688 69.803L109.102 68.3888L107.688 66.9746L79.8872 39.1739ZM102.475 78.4907L103.889 77.0765L102.475 75.6623L71.1994 44.3865L69.7852 42.9723L68.371 44.3865L24.9324 87.8251C23.1749 89.5826 22.1875 91.9664 22.1875 94.4519C22.1875 96.9375 23.1749 99.3212 24.9324 101.079L45.7829 121.929C47.5405 123.687 49.9243 124.674 52.4098 124.674C54.8953 124.674 57.2791 123.687 59.0366 121.929L102.475 78.4907ZM99.0002 40.9114C98.9144 40.8256 98.8662 40.7093 98.8662 40.5881C98.8662 40.4668 98.9144 40.3505 99.0002 40.2647C99.0859 40.179 99.2022 40.1308 99.3235 40.1308C99.4448 40.1308 99.5611 40.179 99.6468 40.2647C99.7326 40.3505 99.7807 40.4668 99.7807 40.5881C99.7807 40.7093 99.7326 40.8256 99.6468 40.9114C99.5611 40.9972 99.4448 41.0453 99.3235 41.0453C99.2022 41.0453 99.0859 40.9972 99.0002 40.9114ZM105.95 47.8616C105.865 47.7758 105.816 47.6595 105.816 47.5382C105.816 47.417 105.865 47.3007 105.95 47.2149C106.036 47.1292 106.152 47.081 106.274 47.081C106.395 47.081 106.511 47.1292 106.597 47.2149C106.683 47.3007 106.731 47.417 106.731 47.5382C106.731 47.6595 106.683 47.7758 106.597 47.8616C106.511 47.9473 106.395 47.9955 106.274 47.9955C106.152 47.9955 106.036 47.9473 105.95 47.8616Z" fill="#6E65B6" stroke="white" stroke-width="4"/>
<path id="Vector_2" d="M121.912 42.3256L104.536 24.9502C104.075 24.4894 103.45 24.2305 102.799 24.2305C102.147 24.2305 101.522 24.4894 101.061 24.9502L85.4231 40.5881L106.274 61.4386L121.912 45.8007C122.372 45.3399 122.631 44.7149 122.631 44.0632C122.631 43.4115 122.372 42.7864 121.912 42.3256ZM97.5859 42.3256C97.1251 41.8648 96.8662 41.2398 96.8662 40.5881C96.8662 39.9364 97.1251 39.3114 97.5859 38.8505C98.0468 38.3897 98.6718 38.1308 99.3235 38.1308C99.9752 38.1308 100.6 38.3897 101.061 38.8505C101.522 39.3114 101.781 39.9364 101.781 40.5881C101.781 41.2398 101.522 41.8648 101.061 42.3256C100.6 42.7864 99.9752 43.0453 99.3235 43.0453C98.6718 43.0453 98.0468 42.7864 97.5859 42.3256ZM104.536 49.2758C104.075 48.815 103.816 48.19 103.816 47.5382C103.816 46.8865 104.075 46.2615 104.536 45.8007C104.997 45.3399 105.622 45.081 106.274 45.081C106.925 45.081 107.55 45.3399 108.011 45.8007C108.472 46.2615 108.731 46.8865 108.731 47.5382C108.731 48.19 108.472 48.815 108.011 49.2758C107.55 49.7366 106.925 49.9955 106.274 49.9955C105.622 49.9955 104.997 49.7366 104.536 49.2758ZM78.473 40.5881L106.274 68.3888L102.799 71.8639L74.9979 44.0632L78.473 40.5881ZM26.3466 89.2393C24.9642 90.6218 24.1875 92.4968 24.1875 94.4519C24.1875 96.407 24.9642 98.2821 26.3466 99.6646L47.1972 120.515C48.5796 121.898 50.4547 122.674 52.4098 122.674C54.3649 122.674 56.2399 121.898 57.6224 120.515L101.061 77.0765L69.7852 45.8007L26.3466 89.2393Z" fill="#6E65B6"/>
<path id="Vector_3" d="M106.273 68.3644L78.4727 40.5637L74.9976 44.0388L102.798 71.8395L106.273 68.3644Z" fill="#4C4394"/>
<g id="Vector_4">
<path d="M47.5728 89.6573C49.5477 91.6322 49.6724 93.8724 48.0963 95.4485C46.5118 97.033 44.2316 96.6272 42.5153 94.9109C40.7198 93.1154 40.4113 90.7379 41.9874 89.1618C43.6312 87.5139 45.9087 87.9932 47.5728 89.6573ZM43.7681 93.6039C44.9505 94.7863 46.2713 95.1213 47.0837 94.3089C47.9024 93.4902 47.5025 92.1468 46.3388 90.9831C45.2544 89.8987 43.8737 89.4276 43.038 90.2633C42.2088 91.0884 42.6024 92.4382 43.7681 93.6039Z" fill="white"/>
<path d="M45.3385 85.8107L46.5785 84.5707L51.601 89.5932L53.7921 87.4021L54.9674 88.5773L51.5363 92.0085L45.3385 85.8107Z" fill="white"/>
<path d="M50.9372 80.212L49.7272 81.4219L55.925 87.6197L57.135 86.4098L50.9372 80.212Z" fill="white"/>
<path d="M40.6556 94.1042C42.463 95.9116 40.5379 97.8367 40.5379 97.8367L39.5795 98.7951L42.1646 101.38L41.1978 102.347L37.5851 98.7342L38.5032 97.8161L36.0356 97.1848L35 96.1492L36.9251 94.224C36.9251 94.224 38.8503 92.2989 40.6556 94.1042ZM39.6973 95.0626C38.9276 94.2929 37.9608 95.2597 37.9608 95.2597L37.1844 96.0361L39.627 96.6763C39.847 96.3843 40.2991 95.6644 39.6973 95.0626Z" fill="white"/>
</g>
<g id="Vector_5">
<path d="M54.5284 106.442C54.3062 106.951 53.8122 107.842 53.1218 108.533C52.1647 109.49 51.1954 109.902 50.1793 109.853C49.1736 109.794 48.1168 109.266 47.2254 108.375C45.2163 106.349 45.3302 103.929 47.048 102.211C47.724 101.535 48.397 101.166 48.7886 101.045L49.6474 102.4C49.2058 102.533 48.7467 102.777 48.172 103.352C47.1839 104.34 47.0673 105.732 48.3918 107.057C49.6529 108.318 51.0659 108.362 52.0375 107.391C52.3021 107.126 52.4832 106.873 52.5319 106.736L51.2539 105.458L50.4456 106.266L49.3746 105.195L51.3261 103.244L54.5264 106.444L54.5284 106.442Z" fill="white"/>
<path d="M49.7272 99.7886C50.0348 99.3355 50.5394 98.7196 51.1782 98.0809C51.9554 97.3036 52.6381 96.8948 53.3569 96.8694C53.9663 96.8421 54.5767 97.1093 55.1416 97.6743C55.9185 98.4511 55.9823 99.4617 55.7222 100.107L55.75 100.135C56.2892 99.9423 56.89 100.142 57.5894 100.577C58.4547 101.115 59.4144 101.765 59.7532 101.901L58.5398 103.115C58.2793 103.011 57.6548 102.652 56.7483 102.039C55.8268 101.411 55.3982 101.437 54.8997 101.918L54.5504 102.268L56.9687 104.686L55.7945 105.86L49.7251 99.7907L49.7272 99.7886ZM53.5466 101.26L54.0138 100.792C54.605 100.201 54.6077 99.5052 54.0683 98.9659C53.5119 98.4094 52.8921 98.4429 52.3484 98.9865C52.0611 99.2739 51.917 99.4564 51.8559 99.569L53.5466 101.26Z" fill="white"/>
<path d="M60.1073 98.3643L61.3267 100.328L60.105 101.55L55.501 93.758L57.0576 92.2014L64.8885 96.7661L63.6048 98.0499L61.6081 96.8635L60.1073 98.3643ZM60.3884 95.9871L58.7464 94.9982C58.2846 94.7225 57.7322 94.3562 57.2871 94.0681L57.2705 94.0846C57.5607 94.532 57.9522 95.0764 58.2234 95.5212L59.2287 97.1468L60.3884 95.9871Z" fill="white"/>
<path d="M59.3894 89.8696L62.5854 86.6737L63.7348 87.8231L61.7213 89.8366L63.1381 91.2534L65.0193 89.3722L66.1601 90.513L64.2789 92.3942L66.7697 94.8849L65.5872 96.0674L59.3894 89.8696Z" fill="white"/>
<path d="M64.6711 84.588L63.4887 85.7703L69.6865 91.9681L70.8689 90.7858L64.6711 84.588Z" fill="white"/>
<path d="M65.6965 83.5626L66.8707 82.3884L69.6106 85.1283L69.6272 85.1118C69.5036 84.7567 69.4099 84.4108 69.314 84.0668L68.4377 80.8256L69.8992 79.3641L70.8035 83.7372L76.1796 85.475L74.8028 86.8518L70.8376 85.4664L71.0484 86.562L73.0705 88.5841L71.8963 89.7583L65.6986 83.5605L65.6965 83.5626Z" fill="white"/>
<path d="M76.4602 82.0114L77.6796 83.975L76.4579 85.1967L71.8539 77.4051L73.4106 75.8485L81.2414 80.4132L79.9577 81.6969L77.9631 80.5085L76.4602 82.0114ZM76.7435 79.632L75.1014 78.6432C74.6417 78.3696 74.0872 78.0011 73.6421 77.7131L73.6255 77.7296C73.9157 78.1769 74.3072 78.7214 74.5784 79.1662L75.5838 80.7917L76.7435 79.632Z" fill="white"/>
</g>
</g>
<defs>
<filter id="filter0_d_1599_111" x="0.1875" y="0.230469" width="156.445" height="156.444" filterUnits="userSpaceOnUse" color-interpolation-filters="sRGB">
<feFlood flood-opacity="0" result="BackgroundImageFix"/>
<feColorMatrix in="SourceAlpha" type="matrix" values="0 0 0 0 0 0 0 0 0 0 0 0 0 0 0 0 0 0 127 0" result="hardAlpha"/>
<feMorphology radius="5" operator="erode" in="SourceAlpha" result="effect1_dropShadow_1599_111"/>
<feOffset dx="5" dy="5"/>
<feGaussianBlur stdDeviation="15"/>
<feComposite in2="hardAlpha" operator="out"/>
<feColorMatrix type="matrix" values="0 0 0 0 0.835294 0 0 0 0 0.827451 0 0 0 0 0.811765 0 0 0 0.6 0"/>
<feBlend mode="normal" in2="BackgroundImageFix" result="effect1_dropShadow_1599_111"/>
<feBlend mode="normal" in="SourceGraphic" in2="effect1_dropShadow_1599_111" result="shape"/>
</filter>
</defs>
</svg>
