<svg width="165" height="157" viewBox="0 0 165 157" fill="none" xmlns="http://www.w3.org/2000/svg">
<g filter="url(#filter0_d_2_486)">
<path d="M22.0224 50.0419C21.8934 51.9055 22.3171 53.7224 23.4658 55.2622C24.607 56.7918 26.3293 57.869 28.4812 58.5187L28.4914 58.5217L28.5016 58.5247C32.882 59.7965 37.4787 60.9496 42.1122 61.5288L42.1172 61.5294C44.4526 61.8154 45.4347 63.2347 46.5919 65.5491L46.6029 65.5712L46.6145 65.593C46.8832 66.0987 46.8672 66.5059 46.6554 67.0016C46.4002 67.5989 45.8752 68.2521 45.1464 68.9809L45.1307 68.9966L45.1153 69.0127C44.4109 69.7491 43.6282 70.4522 42.7836 71.1923C42.6466 71.3124 42.5074 71.4339 42.3666 71.5568C41.6596 72.1739 40.9132 72.8254 40.2078 73.5002L40.2008 73.5069L40.1939 73.5136C31.0458 82.4349 29.5918 94.8247 36.5459 105.637C40.8707 112.42 47.0351 116.915 54.1577 120.04L54.1638 120.043C65.8957 125.144 78.0637 125.397 90.1507 123.833L90.1606 123.831C98.6889 122.685 107.007 120.229 114.353 115.087L114.361 115.081C127.496 105.783 132.141 92.4816 132.357 77.3542L132.359 77.2349L132.346 77.1163C132.23 76.0146 132.124 74.8885 132.016 73.7495C131.743 70.8654 131.462 67.899 131.002 65.0382C130.74 63.3953 130.469 61.9819 130.089 60.8907C129.725 59.8408 129.108 58.6301 127.838 58.0265C126.565 57.4221 125.24 57.7125 124.204 58.0918C123.131 58.4852 121.881 59.1618 120.47 59.9802C113.505 63.94 106.226 66.6838 98.4044 67.3523L98.3964 67.353C93.9264 67.7533 89.2157 67.4232 84.6667 66.61C82.8851 66.2499 82.5255 65.648 82.4416 65.4015C82.3126 65.0226 82.32 64.0992 83.3412 62.4053C83.5539 62.0598 83.7814 61.7003 84.0166 61.3284C84.9284 59.8873 85.9563 58.2627 86.6841 56.5701C91.6536 45.5546 88.1241 32.4968 78.4373 26.8722C63.1346 17.9776 44.7284 25.0128 39.2098 41.7393C39.1139 41.9988 38.9198 42.3512 38.6746 42.6522C38.5537 42.8005 38.4455 42.9053 38.364 42.9696C38.3384 42.9898 38.3195 43.0029 38.3074 43.0107C34.181 44.1779 29.9949 45.2058 25.8164 46.0283C24.9706 46.1831 23.9431 46.4598 23.1569 47.2259C22.3008 48.06 22.0711 49.1219 22.0224 50.0419ZM53.4212 44.6632C52.2155 44.6632 51.2208 43.6685 51.2208 42.4629C51.2208 41.2573 52.2155 40.2626 53.4212 40.2626C54.6268 40.2626 55.6215 41.2573 55.6215 42.4629C55.6215 43.6685 54.6268 44.6632 53.4212 44.6632Z" fill="#6E65B6" stroke="white" stroke-width="4"/>
<path d="M71.5667 82.5199C71.5667 85.3128 70.0708 86.985 67.8419 86.985C65.601 86.985 64.2756 85.0857 64.2756 82.6585C64.2756 80.1193 65.7386 78.22 67.9675 78.22C70.2952 78.217 71.5667 80.1664 71.5667 82.5199ZM66.0857 82.6202C66.0857 84.2924 66.7828 85.4632 67.9316 85.4632C69.0895 85.4632 69.7566 84.2304 69.7566 82.5848C69.7566 81.0512 69.1134 79.7418 67.9316 79.7418C66.7618 79.7388 66.0857 80.9716 66.0857 82.6202Z" fill="white"/>
<path d="M72.7068 78.22L74.4604 78.22L74.4604 85.3229L77.5591 85.3229L77.5591 86.985L72.7068 86.985L72.7068 78.22Z" fill="white"/>
<path d="M80.6245 78.22L78.9134 78.22L78.9134 86.985L80.6245 86.985L80.6245 78.22Z" fill="white"/>
<path d="M63.5311 80.7731C63.5311 83.3291 60.8085 83.3291 60.8085 83.3291L59.4532 83.3291L59.4532 86.985L58.0859 86.985L58.0859 81.8758L59.3844 81.8758L58.0859 79.6846L58.0859 78.22L60.8085 78.22C60.8085 78.22 63.5311 78.22 63.5311 80.7731ZM62.1758 80.7731C62.1758 79.6846 60.8085 79.6846 60.8085 79.6846L59.7105 79.6846L60.985 81.8645C61.347 81.8136 62.1758 81.6242 62.1758 80.7731Z" fill="white"/>
<path d="M64.617 99.3072C64.0995 99.5103 63.1202 99.7911 62.1437 99.7911C60.7902 99.7911 59.8137 99.3968 59.1296 98.644C58.4601 97.8911 58.0859 96.7709 58.0859 95.5102C58.0976 92.6572 59.8897 91.0261 62.3191 91.0261C63.2751 91.0261 64.0118 91.2412 64.3743 91.4324L64.0235 92.9978C63.6172 92.7797 63.1202 92.6274 62.3074 92.6274C60.91 92.6274 59.843 93.5296 59.843 95.4027C59.843 97.1861 60.8106 98.2168 62.1847 98.2168C62.5589 98.2168 62.8658 98.166 62.9974 98.1033L62.9974 96.2959L61.8543 96.2959L61.8543 94.7813L64.6141 94.7813L64.6141 99.3072L64.617 99.3072Z" fill="white"/>
<path d="M65.9265 91.2077C66.4644 91.1048 67.2567 91.0261 68.16 91.0261C69.2593 91.0261 70.0311 91.2198 70.5573 91.7101C71.0075 92.1217 71.2502 92.7422 71.2502 93.5412C71.2502 94.6399 70.5807 95.3995 69.9404 95.6719L69.9404 95.7113C70.4579 95.9564 70.7415 96.5224 70.9286 97.3245C71.1595 98.3172 71.3788 99.4552 71.522 99.7911L69.806 99.7911C69.6949 99.5339 69.5078 98.8377 69.3002 97.7633C69.0926 96.6677 68.7711 96.3832 68.0782 96.3711L67.5841 96.3711L67.5841 99.7911L65.9236 99.7911L65.9236 91.2077L65.9265 91.2077ZM67.587 94.9486L68.2477 94.9486C69.0839 94.9486 69.5779 94.4583 69.5779 93.6956C69.5779 92.9087 69.116 92.494 68.3471 92.494C67.9408 92.494 67.7098 92.5213 67.587 92.5576L67.587 94.9486Z" fill="white"/>
<path d="M74.2735 97.5404L73.7472 99.7911L72.0195 99.7911L74.2735 91.0261L76.4748 91.0261L78.7844 99.7911L76.9689 99.7911L76.3959 97.5404L74.2735 97.5404ZM76.1533 96.0582L75.6914 94.1979C75.5598 93.6764 75.4282 93.0268 75.3171 92.5083L75.2938 92.5083C75.1827 93.0298 75.0745 93.6916 74.9517 94.1979L74.5132 96.0582L76.1533 96.0582Z" fill="white"/>
<path d="M79.7726 91.0261L84.2923 91.0261L84.2923 92.6516L81.4448 92.6516L81.4448 94.6553L84.1052 94.6553L84.1052 96.2687L81.4448 96.2687L81.4448 99.7911L79.7726 99.7911L79.7726 91.0261Z" fill="white"/>
<path d="M87.2419 91.0261L85.5698 91.0261L85.5698 99.7911L87.2419 99.7911L87.2419 91.0261Z" fill="white"/>
<path d="M88.6921 91.0261L90.3526 91.0261L90.3526 94.901L90.376 94.901C90.5397 94.5626 90.718 94.2516 90.8934 93.9407L92.5657 91.0292L94.6326 91.0292L92.1798 94.7608L94.7524 99.7911L92.8054 99.7911L90.9811 96.0077L90.3555 96.9314L90.3555 99.7911L88.695 99.7911L88.695 91.0261L88.6921 91.0261Z" fill="white"/>
<path d="M97.4 97.5404L96.8738 99.7911L95.146 99.7911L97.4 91.0261L99.6014 91.0261L101.911 99.7911L100.095 99.7911L99.5254 97.5404L97.4 97.5404ZM99.2827 96.0582L98.8208 94.1979C98.6893 93.6794 98.5577 93.0268 98.4466 92.5083L98.4232 92.5083C98.3121 93.0298 98.204 93.6916 98.0812 94.1979L97.6427 96.0582L99.2827 96.0582Z" fill="white"/>
</g>
<defs>
<filter id="filter0_d_2_486" x="0" y="0.99823" width="164.36" height="155.681" filterUnits="userSpaceOnUse" color-interpolation-filters="sRGB">
<feFlood flood-opacity="0" result="BackgroundImageFix"/>
<feColorMatrix in="SourceAlpha" type="matrix" values="0 0 0 0 0 0 0 0 0 0 0 0 0 0 0 0 0 0 127 0" result="hardAlpha"/>
<feMorphology radius="5" operator="erode" in="SourceAlpha" result="effect1_dropShadow_2_486"/>
<feOffset dx="5" dy="5"/>
<feGaussianBlur stdDeviation="15"/>
<feComposite in2="hardAlpha" operator="out"/>
<feColorMatrix type="matrix" values="0 0 0 0 0.835294 0 0 0 0 0.827451 0 0 0 0 0.811765 0 0 0 0.6 0"/>
<feBlend mode="normal" in2="BackgroundImageFix" result="effect1_dropShadow_2_486"/>
<feBlend mode="normal" in="SourceGraphic" in2="effect1_dropShadow_2_486" result="shape"/>
</filter>
</defs>
</svg>
