<svg width="17" height="13" viewBox="0 0 17 13" fill="none" xmlns="http://www.w3.org/2000/svg">
<g id="Frame" clip-path="url(#clip0_1599_321)">
<g id="Group">
<path id="Vector" d="M14.6818 3.07272H12.3636V0H1.54547C0.691579 0 0 0.687511 0 1.53638V9.98639H1.54547C1.54547 11.2577 2.58477 12.2909 3.86365 12.2909C5.14253 12.2909 6.18183 11.2577 6.18183 9.98639H10.8182C10.8182 11.2577 11.8575 12.2909 13.1364 12.2909C14.4153 12.2909 15.4546 11.2577 15.4546 9.98639H17V6.14547L14.6818 3.07272ZM3.86365 11.1386C3.22228 11.1386 2.70456 10.624 2.70456 9.98636C2.70456 9.34876 3.22228 8.83409 3.86365 8.83409C4.50503 8.83409 5.02274 9.34876 5.02274 9.98636C5.02274 10.624 4.50499 11.1386 3.86365 11.1386ZM13.1364 11.1386C12.495 11.1386 11.9773 10.624 11.9773 9.98636C11.9773 9.34876 12.495 8.83409 13.1364 8.83409C13.7778 8.83409 14.2955 9.34876 14.2955 9.98636C14.2955 10.624 13.7777 11.1386 13.1364 11.1386ZM12.3636 6.14547V4.22503H14.2954L15.8139 6.14547H12.3636Z" fill="white"/>
</g>
</g>
<defs>
<clipPath id="clip0_1599_321">
<rect width="17" height="13" fill="white"/>
</clipPath>
</defs>
</svg>
