<svg width="13" height="13" viewBox="0 0 13 13" fill="none" xmlns="http://www.w3.org/2000/svg">
<g id="Frame" clip-path="url(#clip0_1599_328)">
<g id="Group">
<path id="Layer 2" d="M10.04 1.21154C9.39777 0.709595 8.64685 0.349959 7.84139 0.158567C7.03593 -0.032825 6.19601 -0.0512018 5.38221 0.104762C4.33583 0.309536 3.37318 0.797102 2.60891 1.50938C1.84465 2.22166 1.311 3.12863 1.07152 4.12225C0.832044 5.11587 0.89684 6.15426 1.25819 7.11371C1.61954 8.07317 2.26221 8.91326 3.10965 9.53391C4.07719 10.2099 4.90098 11.0556 5.53697 12.0258L5.97031 12.7136C6.02535 12.801 6.10313 12.8733 6.19609 12.9234C6.28906 12.9736 6.39404 13 6.50085 13C6.60765 13 6.71263 12.9736 6.8056 12.9234C6.89856 12.8733 6.97634 12.801 7.03138 12.7136L7.44677 12.053C8.00058 11.1237 8.75572 10.3179 9.66175 9.68932C10.3722 9.22275 10.9593 8.60498 11.3768 7.88476C11.7943 7.16453 12.0308 6.36154 12.0675 5.53916C12.1042 4.71678 11.9403 3.8975 11.5885 3.14596C11.2368 2.39442 10.7069 1.73118 10.0406 1.20858L10.04 1.21154ZM6.50023 7.68259C6.01047 7.68259 5.53172 7.54396 5.12451 7.28424C4.71729 7.02452 4.39991 6.65537 4.21249 6.22348C4.02507 5.79158 3.97603 5.31633 4.07158 4.85783C4.16712 4.39933 4.40296 3.97817 4.74927 3.6476C5.09557 3.31704 5.5368 3.09193 6.01714 3.00073C6.49748 2.90953 6.99537 2.95633 7.44784 3.13523C7.90031 3.31413 8.28704 3.61708 8.55914 4.00578C8.83123 4.39448 8.97646 4.85147 8.97646 5.31895C8.97646 5.94583 8.71557 6.54703 8.25119 6.9903C7.7868 7.43356 7.15696 7.68259 6.50023 7.68259Z" fill="white"/>
</g>
</g>
<defs>
<clipPath id="clip0_1599_328">
<rect width="13" height="13" fill="white"/>
</clipPath>
</defs>
</svg>
