<svg width="13" height="13" viewBox="0 0 13 13" fill="none" xmlns="http://www.w3.org/2000/svg">
<g id="Frame" clip-path="url(#clip0_1599_313)">
<g id="Group">
<path id="Vector" d="M11.8189 0.008125C11.8054 0.0070332 11.794 0 11.7799 0H5.95703C5.06112 0 4.33203 0.729092 4.33203 1.625V2.16663C4.33203 2.46566 4.57464 2.70837 4.87366 2.70837C5.17269 2.70837 5.4153 2.46566 5.4153 2.16663V1.625C5.4153 1.32656 5.65849 1.08337 5.95703 1.08337H8.48061L8.31539 1.13862C7.87669 1.29025 7.58203 1.70356 7.58203 2.16663V10.2916H5.95703C5.65849 10.2916 5.4153 10.0484 5.4153 9.75V8.66663C5.4153 8.36771 5.17269 8.125 4.87366 8.125C4.57464 8.125 4.33203 8.36771 4.33203 8.66663V9.75C4.33203 10.6459 5.06112 11.375 5.95703 11.375H7.58203V11.9166C7.58203 12.5141 8.06783 13 8.6653 13C8.78123 13 8.89122 12.9832 9.01036 12.9463L12.2647 11.8614C12.704 11.7098 12.9987 11.2965 12.9987 10.8334V1.08337C12.9987 0.451775 12.4543 -0.0433418 11.8189 0.008125Z" fill="white"/>
<path id="Vector_2" d="M5.79957 5.03368L3.63294 2.86705C3.5572 2.79123 3.46067 2.73959 3.35556 2.71867C3.25046 2.69775 3.14151 2.70848 3.04251 2.74952C2.94363 2.79064 2.85914 2.86011 2.79967 2.94917C2.74021 3.03823 2.70844 3.1429 2.70837 3.24999V4.87499H0.541633C0.242709 4.87499 0 5.1177 0 5.41663C0 5.71565 0.242709 5.95836 0.541633 5.95836H2.70837V7.58336C2.70846 7.69044 2.74024 7.7951 2.7997 7.88415C2.85916 7.97321 2.94364 8.04268 3.04251 8.08381C3.14151 8.12482 3.25045 8.13555 3.35555 8.11463C3.46065 8.09371 3.55719 8.04209 3.63294 7.9663L5.79957 5.79957C6.01143 5.58781 6.01143 5.24554 5.79957 5.03368Z" fill="white"/>
</g>
</g>
<defs>
<clipPath id="clip0_1599_313">
<rect width="13" height="13" fill="white"/>
</clipPath>
</defs>
</svg>
