<svg width="22" height="22" viewBox="0 0 22 22" fill="none" xmlns="http://www.w3.org/2000/svg">
<g id="inst" clip-path="url(#clip0_0_57)">
<g id="Group">
<g id="Group_2">
<path id="Vector" d="M1.64767 1.73784C-0.0378881 3.48829 0.307088 5.34776 0.307088 10.9968C0.307088 15.6879 -0.51156 20.3906 3.77294 21.4977C5.11084 21.8417 16.9652 21.8417 18.3013 21.4959C20.0851 21.0357 21.5365 19.5891 21.7349 17.0666C21.7627 16.7146 21.7627 5.28521 21.7341 4.92601C21.5231 2.23912 19.8689 0.690601 17.6891 0.376966C17.1895 0.304589 17.0894 0.283144 14.5262 0.278676C5.43437 0.283144 3.44137 -0.121633 1.64767 1.73784Z" fill="url(#paint0_linear_0_57)"/>
<path id="Vector_2" d="M11.03 3.08357C7.78492 3.08357 4.70337 2.79495 3.52633 5.81514C3.04015 7.06253 3.11075 8.68253 3.11075 11.0022C3.11075 13.0377 3.04551 14.9508 3.52633 16.1883C4.70068 19.2103 7.80726 18.9208 11.0282 18.9208C14.1357 18.9208 17.3397 19.2442 18.531 16.1883C19.0181 14.9284 18.9466 13.3325 18.9466 11.0022C18.9466 7.90872 19.1173 5.91164 17.6167 4.41227C16.0974 2.89324 14.0428 3.08357 11.0264 3.08357H11.03ZM10.3204 4.51056C17.0894 4.49984 17.951 3.74748 17.4755 14.1993C17.3066 17.8959 14.4914 17.4902 11.0309 17.4902C4.72124 17.4902 4.53981 17.3097 4.53981 10.9986C4.53981 4.61421 5.0403 4.51414 10.3204 4.50878V4.51056ZM15.2573 5.82497C15.0054 5.82497 14.7637 5.92504 14.5855 6.10317C14.4074 6.2813 14.3073 6.52289 14.3073 6.77481C14.3073 7.02672 14.4074 7.26832 14.5855 7.44644C14.7637 7.62457 15.0054 7.72465 15.2573 7.72465C15.5093 7.72465 15.7509 7.62457 15.9291 7.44644C16.1073 7.26832 16.2073 7.02672 16.2073 6.77481C16.2073 6.52289 16.1073 6.2813 15.9291 6.10317C15.7509 5.92504 15.5093 5.82497 15.2573 5.82497ZM11.03 6.93565C10.4959 6.9357 9.96712 7.04093 9.47373 7.24533C8.98033 7.44972 8.53204 7.74928 8.15443 8.12689C7.39183 8.88951 6.96347 9.92378 6.96359 11.0022C6.96371 12.0806 7.39229 13.1147 8.15506 13.8772C8.91784 14.6396 9.95231 15.0679 11.0309 15.0678C12.1095 15.0677 13.1439 14.6392 13.9065 13.8766C14.6691 13.1139 15.0975 12.0797 15.0973 11.0013C15.0972 9.92289 14.6686 8.88871 13.9059 8.12626C13.1431 7.3638 12.1086 6.93553 11.03 6.93565ZM11.03 8.36264C14.52 8.36264 14.5245 13.6417 11.03 13.6417C7.54093 13.6417 7.53557 8.36264 11.03 8.36264Z" fill="white"/>
</g>
</g>
</g>
<defs>
<linearGradient id="paint0_linear_0_57" x1="1.6888" y1="20.3541" x2="21.6203" y2="3.10017" gradientUnits="userSpaceOnUse">
<stop stop-color="#FFDD55"/>
<stop offset="0.5" stop-color="#FF543E"/>
<stop offset="1" stop-color="#C837AB"/>
</linearGradient>
<clipPath id="clip0_0_57">
<rect width="22" height="22" fill="white"/>
</clipPath>
</defs>
</svg>
