<svg width="22" height="22" viewBox="0 0 22 22" fill="none" xmlns="http://www.w3.org/2000/svg">
<g id="Frame" clip-path="url(#clip0_0_67)">
<g id="Group">
<path id="Vector" d="M0 22L1.51723 16.5C0.531051 14.7931 0 12.8966 0 10.9241C0 4.93105 4.93105 0 10.9621 0C16.9931 0 22 4.93105 22 10.9241C22 16.9172 16.9931 22 10.9621 22C9.0655 22 7.24483 21.3931 5.61378 20.4828L0 22Z" fill="#EDEDED"/>
<path id="Vector_2" d="M5.91722 18.5103L6.2586 18.7C7.66205 19.5724 9.2931 20.1034 11 20.1034C15.9689 20.1034 20.1034 15.9689 20.1034 10.9241C20.1034 5.87928 15.9689 1.89655 10.962 1.89655C5.95516 1.89655 1.89655 5.91722 1.89655 10.9241C1.89655 12.6689 2.38965 14.3758 3.29999 15.8172L3.5276 16.1586L2.6552 19.3448L5.91722 18.5103Z" fill="#55CD6C"/>
<path id="Vector_3" d="M8.0414 5.84141L7.32073 5.80347C7.09313 5.80347 6.86556 5.87935 6.71384 6.03107C6.37245 6.33452 5.8035 6.90347 5.65178 7.66212C5.38628 8.80006 5.8035 10.1656 6.78972 11.5311C7.77594 12.8966 9.6725 15.0966 13.0104 16.0449C14.0725 16.3483 14.9069 16.1586 15.5897 15.7414C16.1208 15.4 16.4621 14.869 16.5759 14.3L16.6897 13.769C16.7277 13.6172 16.6518 13.4276 16.5001 13.3517L14.1104 12.2517C13.9587 12.1759 13.769 12.2138 13.6552 12.3655L12.7069 13.5793C12.6311 13.6552 12.5173 13.6931 12.4035 13.6552C11.7587 13.4276 9.59661 12.5172 8.42073 10.2414C8.38279 10.1276 8.38279 10.0138 8.45867 9.93796L9.36901 8.91385C9.44489 8.80007 9.48279 8.64834 9.44489 8.53452L8.34489 6.06901C8.30691 5.95519 8.19313 5.84141 8.0414 5.84141Z" fill="white"/>
</g>
</g>
<defs>
<clipPath id="clip0_0_67">
<rect width="22" height="22" fill="white"/>
</clipPath>
</defs>
</svg>
