<svg width="14" height="14" viewBox="0 0 14 14" fill="none" xmlns="http://www.w3.org/2000/svg">
<g clip-path="url(#clip0_0_210)">
<path d="M10.8111 1.30473C10.1195 0.764179 9.31079 0.376878 8.44337 0.170764C7.57595 -0.03535 6.67142 -0.0551404 5.79502 0.11282C4.66816 0.333346 3.63145 0.858418 2.8084 1.62549C1.98535 2.39256 1.41064 3.36929 1.15274 4.43935C0.894846 5.5094 0.964626 6.62766 1.35377 7.66092C1.74292 8.69419 2.43502 9.5989 3.34765 10.2673C4.38962 10.9952 5.27678 11.906 5.96169 12.9508L6.42837 13.6916C6.48764 13.7857 6.5714 13.8635 6.67151 13.9176C6.77163 13.9716 6.88469 14 6.99971 14C7.11473 14 7.22779 13.9716 7.3279 13.9176C7.42802 13.8635 7.51178 13.7857 7.57105 13.6916L8.01839 12.9801C8.61481 11.9793 9.42803 11.1115 10.4038 10.4347C11.1688 9.9322 11.8011 9.26691 12.2507 8.49128C12.7004 7.71564 12.955 6.85089 12.9946 5.96525C13.0341 5.07961 12.8575 4.1973 12.4787 3.38795C12.0999 2.5786 11.5293 1.86435 10.8118 1.30155L10.8111 1.30473ZM6.99904 8.27356C6.47162 8.27356 5.95604 8.12427 5.5175 7.84457C5.07896 7.56487 4.73716 7.16733 4.53532 6.7022C4.33349 6.23708 4.28068 5.72528 4.38357 5.23151C4.48647 4.73774 4.74045 4.28418 5.11339 3.92819C5.48634 3.5722 5.9615 3.32977 6.47879 3.23155C6.99608 3.13334 7.53227 3.18374 8.01955 3.3764C8.50682 3.56906 8.92331 3.89532 9.21633 4.31392C9.50935 4.73252 9.66575 5.22466 9.66575 5.7281C9.66575 6.4032 9.38479 7.05064 8.88469 7.52801C8.38458 8.00538 7.7063 8.27356 6.99904 8.27356Z" fill="#58595B"/>
</g>
<defs>
<clipPath id="clip0_0_210">
<rect width="14" height="14" fill="white"/>
</clipPath>
</defs>
</svg>
