<svg width="14" height="14" viewBox="0 0 14 14" fill="none" xmlns="http://www.w3.org/2000/svg">
<path d="M8.17001 9.50447C7.82171 9.72592 7.41713 9.84299 7 9.84299C6.5829 9.84299 6.17832 9.72592 5.83002 9.50447L0.0932148 5.85688C0.0615454 5.83669 0.0304621 5.81567 0 5.79385L0 11.7708C0 12.4561 0.583105 12.9999 1.28879 12.9999H12.7112C13.4297 12.9999 14 12.4438 14 11.7708V5.79382C13.9695 5.8157 13.9383 5.83676 13.9066 5.85698L8.17001 9.50447Z" fill="#58595B"/>
<path d="M0.548243 5.20598L6.28504 8.85359C6.50221 8.99168 6.75109 9.06071 6.99997 9.06071C7.24888 9.06071 7.49779 8.99165 7.71496 8.85359L13.4518 5.20598C13.7951 4.98784 14 4.62275 14 4.22871C14 3.55118 13.422 3 12.7116 3H1.28836C0.577966 3.00003 6.78154e-07 3.55121 6.78154e-07 4.22936C-0.000212291 4.42265 0.0497391 4.61299 0.1454 4.7834C0.24106 4.9538 0.379456 5.09898 0.548243 5.20598Z" fill="#58595B"/>
</svg>
